<?xml version="1.0" encoding="utf-8" standalone="no"?>
<!DOCTYPE svg PUBLIC "-//W3C//DTD SVG 1.1//EN"
  "http://www.w3.org/Graphics/SVG/1.1/DTD/svg11.dtd">
<!-- Created with matplotlib (https://matplotlib.org/) -->
<svg height="1512pt" version="1.1" viewBox="0 0 1080 1512" width="1080pt" xmlns="http://www.w3.org/2000/svg" xmlns:xlink="http://www.w3.org/1999/xlink">
 <metadata>
  <rdf:RDF xmlns:cc="http://creativecommons.org/ns#" xmlns:dc="http://purl.org/dc/elements/1.1/" xmlns:rdf="http://www.w3.org/1999/02/22-rdf-syntax-ns#">
   <cc:Work>
    <dc:type rdf:resource="http://purl.org/dc/dcmitype/StillImage"/>
    <dc:date>2020-11-23T17:41:34.815947</dc:date>
    <dc:format>image/svg+xml</dc:format>
    <dc:creator>
     <cc:Agent>
      <dc:title>Matplotlib v3.3.2, https://matplotlib.org/</dc:title>
     </cc:Agent>
    </dc:creator>
   </cc:Work>
  </rdf:RDF>
 </metadata>
 <defs>
  <style type="text/css">*{stroke-linecap:butt;stroke-linejoin:round;}</style>
 </defs>
 <g id="figure_1">
  <g id="patch_1">
   <path d="M 0 1512 
L 1080 1512 
L 1080 0 
L 0 0 
z
" style="fill:#ffffff;"/>
  </g>
  <g id="axes_1">
   <g id="patch_2">
    <path d="M 45.34 500.36 
L 529.47 500.36 
L 529.47 54.29625 
L 45.34 54.29625 
z
" style="fill:#eaeaf2;"/>
   </g>
   <g id="matplotlib.axis_1">
    <g id="xtick_1">
     <g id="text_1">
      <!-- &lt;=50K -->
      <g style="fill:#262626;" transform="translate(151.635781 514.517812)scale(0.1 -0.1)">
       <defs>
        <path d="M 5.46875 31.296875 
L 5.46875 39.5 
L 52.875 59.515625 
L 52.875 50.78125 
L 15.28125 35.359375 
L 52.875 19.78125 
L 52.875 11.03125 
z
" id="ArialMT-60"/>
        <path d="M 52.828125 42.09375 
L 5.5625 42.09375 
L 5.5625 50.296875 
L 52.828125 50.296875 
z
M 52.828125 20.359375 
L 5.5625 20.359375 
L 5.5625 28.5625 
L 52.828125 28.5625 
z
" id="ArialMT-61"/>
        <path d="M 4.15625 18.75 
L 13.375 19.53125 
Q 14.40625 12.796875 18.140625 9.390625 
Q 21.875 6 27.15625 6 
Q 33.5 6 37.890625 10.78125 
Q 42.28125 15.578125 42.28125 23.484375 
Q 42.28125 31 38.0625 35.34375 
Q 33.84375 39.703125 27 39.703125 
Q 22.75 39.703125 19.328125 37.765625 
Q 15.921875 35.84375 13.96875 32.765625 
L 5.71875 33.84375 
L 12.640625 70.609375 
L 48.25 70.609375 
L 48.25 62.203125 
L 19.671875 62.203125 
L 15.828125 42.96875 
Q 22.265625 47.46875 29.34375 47.46875 
Q 38.71875 47.46875 45.15625 40.96875 
Q 51.609375 34.46875 51.609375 24.265625 
Q 51.609375 14.546875 45.953125 7.46875 
Q 39.0625 -1.21875 27.15625 -1.21875 
Q 17.390625 -1.21875 11.203125 4.25 
Q 5.03125 9.71875 4.15625 18.75 
z
" id="ArialMT-53"/>
        <path d="M 4.15625 35.296875 
Q 4.15625 48 6.765625 55.734375 
Q 9.375 63.484375 14.515625 67.671875 
Q 19.671875 71.875 27.484375 71.875 
Q 33.25 71.875 37.59375 69.546875 
Q 41.9375 67.234375 44.765625 62.859375 
Q 47.609375 58.5 49.21875 52.21875 
Q 50.828125 45.953125 50.828125 35.296875 
Q 50.828125 22.703125 48.234375 14.96875 
Q 45.65625 7.234375 40.5 3 
Q 35.359375 -1.21875 27.484375 -1.21875 
Q 17.140625 -1.21875 11.234375 6.203125 
Q 4.15625 15.140625 4.15625 35.296875 
z
M 13.1875 35.296875 
Q 13.1875 17.671875 17.3125 11.828125 
Q 21.4375 6 27.484375 6 
Q 33.546875 6 37.671875 11.859375 
Q 41.796875 17.71875 41.796875 35.296875 
Q 41.796875 52.984375 37.671875 58.78125 
Q 33.546875 64.59375 27.390625 64.59375 
Q 21.34375 64.59375 17.71875 59.46875 
Q 13.1875 52.9375 13.1875 35.296875 
z
" id="ArialMT-48"/>
        <path d="M 7.328125 0 
L 7.328125 71.578125 
L 16.796875 71.578125 
L 16.796875 36.078125 
L 52.34375 71.578125 
L 65.1875 71.578125 
L 35.15625 42.578125 
L 66.5 0 
L 54 0 
L 28.515625 36.234375 
L 16.796875 24.8125 
L 16.796875 0 
z
" id="ArialMT-75"/>
       </defs>
       <use xlink:href="#ArialMT-60"/>
       <use x="58.398438" xlink:href="#ArialMT-61"/>
       <use x="116.796875" xlink:href="#ArialMT-53"/>
       <use x="172.412109" xlink:href="#ArialMT-48"/>
       <use x="228.027344" xlink:href="#ArialMT-75"/>
      </g>
     </g>
    </g>
    <g id="xtick_2">
     <g id="text_2">
      <!-- &gt;50K -->
      <g style="fill:#262626;" transform="translate(396.621094 514.517812)scale(0.1 -0.1)">
       <defs>
        <path d="M 52.875 31.296875 
L 5.46875 11.03125 
L 5.46875 19.78125 
L 43.015625 35.359375 
L 5.46875 50.78125 
L 5.46875 59.515625 
L 52.875 39.5 
z
" id="ArialMT-62"/>
       </defs>
       <use xlink:href="#ArialMT-62"/>
       <use x="58.398438" xlink:href="#ArialMT-53"/>
       <use x="114.013672" xlink:href="#ArialMT-48"/>
       <use x="169.628906" xlink:href="#ArialMT-75"/>
      </g>
     </g>
    </g>
   </g>
   <g id="matplotlib.axis_2">
    <g id="ytick_1">
     <g id="line2d_1">
      <path clip-path="url(#p25f69b5e4c)" d="M 45.34 459.80875 
L 529.47 459.80875 
" style="fill:none;stroke:#ffffff;stroke-linecap:round;"/>
     </g>
     <g id="text_3">
      <!-- 20 -->
      <g style="fill:#262626;" transform="translate(27.218125 463.387656)scale(0.1 -0.1)">
       <defs>
        <path d="M 50.34375 8.453125 
L 50.34375 0 
L 3.03125 0 
Q 2.9375 3.171875 4.046875 6.109375 
Q 5.859375 10.9375 9.828125 15.625 
Q 13.8125 20.3125 21.34375 26.46875 
Q 33.015625 36.03125 37.109375 41.625 
Q 41.21875 47.21875 41.21875 52.203125 
Q 41.21875 57.421875 37.46875 61 
Q 33.734375 64.59375 27.734375 64.59375 
Q 21.390625 64.59375 17.578125 60.78125 
Q 13.765625 56.984375 13.71875 50.25 
L 4.6875 51.171875 
Q 5.609375 61.28125 11.65625 66.578125 
Q 17.71875 71.875 27.9375 71.875 
Q 38.234375 71.875 44.234375 66.15625 
Q 50.25 60.453125 50.25 52 
Q 50.25 47.703125 48.484375 43.546875 
Q 46.734375 39.40625 42.65625 34.8125 
Q 38.578125 30.21875 29.109375 22.21875 
Q 21.1875 15.578125 18.9375 13.203125 
Q 16.703125 10.84375 15.234375 8.453125 
z
" id="ArialMT-50"/>
       </defs>
       <use xlink:href="#ArialMT-50"/>
       <use x="55.615234" xlink:href="#ArialMT-48"/>
      </g>
     </g>
    </g>
    <g id="ytick_2">
     <g id="line2d_2">
      <path clip-path="url(#p25f69b5e4c)" d="M 45.34 392.223333 
L 529.47 392.223333 
" style="fill:none;stroke:#ffffff;stroke-linecap:round;"/>
     </g>
     <g id="text_4">
      <!-- 30 -->
      <g style="fill:#262626;" transform="translate(27.218125 395.80224)scale(0.1 -0.1)">
       <defs>
        <path d="M 4.203125 18.890625 
L 12.984375 20.0625 
Q 14.5 12.59375 18.140625 9.296875 
Q 21.78125 6 27 6 
Q 33.203125 6 37.46875 10.296875 
Q 41.75 14.59375 41.75 20.953125 
Q 41.75 27 37.796875 30.921875 
Q 33.84375 34.859375 27.734375 34.859375 
Q 25.25 34.859375 21.53125 33.890625 
L 22.515625 41.609375 
Q 23.390625 41.5 23.921875 41.5 
Q 29.546875 41.5 34.03125 44.421875 
Q 38.53125 47.359375 38.53125 53.46875 
Q 38.53125 58.296875 35.25 61.46875 
Q 31.984375 64.65625 26.8125 64.65625 
Q 21.6875 64.65625 18.265625 61.421875 
Q 14.84375 58.203125 13.875 51.765625 
L 5.078125 53.328125 
Q 6.6875 62.15625 12.390625 67.015625 
Q 18.109375 71.875 26.609375 71.875 
Q 32.46875 71.875 37.390625 69.359375 
Q 42.328125 66.84375 44.9375 62.5 
Q 47.5625 58.15625 47.5625 53.265625 
Q 47.5625 48.640625 45.0625 44.828125 
Q 42.578125 41.015625 37.703125 38.765625 
Q 44.046875 37.3125 47.5625 32.6875 
Q 51.078125 28.078125 51.078125 21.140625 
Q 51.078125 11.765625 44.234375 5.25 
Q 37.40625 -1.265625 26.953125 -1.265625 
Q 17.53125 -1.265625 11.296875 4.34375 
Q 5.078125 9.96875 4.203125 18.890625 
z
" id="ArialMT-51"/>
       </defs>
       <use xlink:href="#ArialMT-51"/>
       <use x="55.615234" xlink:href="#ArialMT-48"/>
      </g>
     </g>
    </g>
    <g id="ytick_3">
     <g id="line2d_3">
      <path clip-path="url(#p25f69b5e4c)" d="M 45.34 324.637917 
L 529.47 324.637917 
" style="fill:none;stroke:#ffffff;stroke-linecap:round;"/>
     </g>
     <g id="text_5">
      <!-- 40 -->
      <g style="fill:#262626;" transform="translate(27.218125 328.216823)scale(0.1 -0.1)">
       <defs>
        <path d="M 32.328125 0 
L 32.328125 17.140625 
L 1.265625 17.140625 
L 1.265625 25.203125 
L 33.9375 71.578125 
L 41.109375 71.578125 
L 41.109375 25.203125 
L 50.78125 25.203125 
L 50.78125 17.140625 
L 41.109375 17.140625 
L 41.109375 0 
z
M 32.328125 25.203125 
L 32.328125 57.46875 
L 9.90625 25.203125 
z
" id="ArialMT-52"/>
       </defs>
       <use xlink:href="#ArialMT-52"/>
       <use x="55.615234" xlink:href="#ArialMT-48"/>
      </g>
     </g>
    </g>
    <g id="ytick_4">
     <g id="line2d_4">
      <path clip-path="url(#p25f69b5e4c)" d="M 45.34 257.0525 
L 529.47 257.0525 
" style="fill:none;stroke:#ffffff;stroke-linecap:round;"/>
     </g>
     <g id="text_6">
      <!-- 50 -->
      <g style="fill:#262626;" transform="translate(27.218125 260.631406)scale(0.1 -0.1)">
       <use xlink:href="#ArialMT-53"/>
       <use x="55.615234" xlink:href="#ArialMT-48"/>
      </g>
     </g>
    </g>
    <g id="ytick_5">
     <g id="line2d_5">
      <path clip-path="url(#p25f69b5e4c)" d="M 45.34 189.467083 
L 529.47 189.467083 
" style="fill:none;stroke:#ffffff;stroke-linecap:round;"/>
     </g>
     <g id="text_7">
      <!-- 60 -->
      <g style="fill:#262626;" transform="translate(27.218125 193.04599)scale(0.1 -0.1)">
       <defs>
        <path d="M 49.75 54.046875 
L 41.015625 53.375 
Q 39.84375 58.546875 37.703125 60.890625 
Q 34.125 64.65625 28.90625 64.65625 
Q 24.703125 64.65625 21.53125 62.3125 
Q 17.390625 59.28125 14.984375 53.46875 
Q 12.59375 47.65625 12.5 36.921875 
Q 15.671875 41.75 20.265625 44.09375 
Q 24.859375 46.4375 29.890625 46.4375 
Q 38.671875 46.4375 44.84375 39.96875 
Q 51.03125 33.5 51.03125 23.25 
Q 51.03125 16.5 48.125 10.71875 
Q 45.21875 4.9375 40.140625 1.859375 
Q 35.0625 -1.21875 28.609375 -1.21875 
Q 17.625 -1.21875 10.6875 6.859375 
Q 3.765625 14.9375 3.765625 33.5 
Q 3.765625 54.25 11.421875 63.671875 
Q 18.109375 71.875 29.4375 71.875 
Q 37.890625 71.875 43.28125 67.140625 
Q 48.6875 62.40625 49.75 54.046875 
z
M 13.875 23.1875 
Q 13.875 18.65625 15.796875 14.5 
Q 17.71875 10.359375 21.1875 8.171875 
Q 24.65625 6 28.46875 6 
Q 34.03125 6 38.03125 10.484375 
Q 42.046875 14.984375 42.046875 22.703125 
Q 42.046875 30.125 38.078125 34.390625 
Q 34.125 38.671875 28.125 38.671875 
Q 22.171875 38.671875 18.015625 34.390625 
Q 13.875 30.125 13.875 23.1875 
z
" id="ArialMT-54"/>
       </defs>
       <use xlink:href="#ArialMT-54"/>
       <use x="55.615234" xlink:href="#ArialMT-48"/>
      </g>
     </g>
    </g>
    <g id="ytick_6">
     <g id="line2d_6">
      <path clip-path="url(#p25f69b5e4c)" d="M 45.34 121.881667 
L 529.47 121.881667 
" style="fill:none;stroke:#ffffff;stroke-linecap:round;"/>
     </g>
     <g id="text_8">
      <!-- 70 -->
      <g style="fill:#262626;" transform="translate(27.218125 125.460573)scale(0.1 -0.1)">
       <defs>
        <path d="M 4.734375 62.203125 
L 4.734375 70.65625 
L 51.078125 70.65625 
L 51.078125 63.8125 
Q 44.234375 56.546875 37.515625 44.484375 
Q 30.8125 32.421875 27.15625 19.671875 
Q 24.515625 10.6875 23.78125 0 
L 14.75 0 
Q 14.890625 8.453125 18.0625 20.40625 
Q 21.234375 32.375 27.171875 43.484375 
Q 33.109375 54.59375 39.796875 62.203125 
z
" id="ArialMT-55"/>
       </defs>
       <use xlink:href="#ArialMT-55"/>
       <use x="55.615234" xlink:href="#ArialMT-48"/>
      </g>
     </g>
    </g>
    <g id="ytick_7">
     <g id="line2d_7">
      <path clip-path="url(#p25f69b5e4c)" d="M 45.34 54.29625 
L 529.47 54.29625 
" style="fill:none;stroke:#ffffff;stroke-linecap:round;"/>
     </g>
     <g id="text_9">
      <!-- 80 -->
      <g style="fill:#262626;" transform="translate(27.218125 57.875156)scale(0.1 -0.1)">
       <defs>
        <path d="M 17.671875 38.8125 
Q 12.203125 40.828125 9.5625 44.53125 
Q 6.9375 48.25 6.9375 53.421875 
Q 6.9375 61.234375 12.546875 66.546875 
Q 18.171875 71.875 27.484375 71.875 
Q 36.859375 71.875 42.578125 66.421875 
Q 48.296875 60.984375 48.296875 53.171875 
Q 48.296875 48.1875 45.671875 44.5 
Q 43.0625 40.828125 37.75 38.8125 
Q 44.34375 36.671875 47.78125 31.875 
Q 51.21875 27.09375 51.21875 20.453125 
Q 51.21875 11.28125 44.71875 5.03125 
Q 38.234375 -1.21875 27.640625 -1.21875 
Q 17.046875 -1.21875 10.546875 5.046875 
Q 4.046875 11.328125 4.046875 20.703125 
Q 4.046875 27.6875 7.59375 32.390625 
Q 11.140625 37.109375 17.671875 38.8125 
z
M 15.921875 53.71875 
Q 15.921875 48.640625 19.1875 45.40625 
Q 22.46875 42.1875 27.6875 42.1875 
Q 32.765625 42.1875 36.015625 45.375 
Q 39.265625 48.578125 39.265625 53.21875 
Q 39.265625 58.0625 35.90625 61.359375 
Q 32.5625 64.65625 27.59375 64.65625 
Q 22.5625 64.65625 19.234375 61.421875 
Q 15.921875 58.203125 15.921875 53.71875 
z
M 13.09375 20.65625 
Q 13.09375 16.890625 14.875 13.375 
Q 16.65625 9.859375 20.171875 7.921875 
Q 23.6875 6 27.734375 6 
Q 34.03125 6 38.125 10.046875 
Q 42.234375 14.109375 42.234375 20.359375 
Q 42.234375 26.703125 38.015625 30.859375 
Q 33.796875 35.015625 27.4375 35.015625 
Q 21.234375 35.015625 17.15625 30.90625 
Q 13.09375 26.8125 13.09375 20.65625 
z
" id="ArialMT-56"/>
       </defs>
       <use xlink:href="#ArialMT-56"/>
       <use x="55.615234" xlink:href="#ArialMT-48"/>
      </g>
     </g>
    </g>
   </g>
   <g id="patch_3">
    <path clip-path="url(#p25f69b5e4c)" d="M 69.5465 426.016042 
L 263.1985 426.016042 
L 263.1985 284.086667 
L 69.5465 284.086667 
L 69.5465 426.016042 
z
" style="fill:#657897;stroke:#4c4c4c;stroke-linejoin:miter;stroke-width:3;"/>
   </g>
   <g id="patch_4">
    <path clip-path="url(#p25f69b5e4c)" d="M 311.6115 351.672083 
L 505.2635 351.672083 
L 505.2635 263.811042 
L 311.6115 263.811042 
L 311.6115 351.672083 
z
" style="fill:#6a9373;stroke:#4c4c4c;stroke-linejoin:miter;stroke-width:3;"/>
   </g>
   <g id="line2d_8">
    <path clip-path="url(#p25f69b5e4c)" d="M 166.3725 426.016042 
L 166.3725 480.084375 
" style="fill:none;stroke:#4c4c4c;stroke-linecap:round;stroke-width:3;"/>
   </g>
   <g id="line2d_9">
    <path clip-path="url(#p25f69b5e4c)" d="M 166.3725 284.086667 
L 166.3725 74.571875 
" style="fill:none;stroke:#4c4c4c;stroke-linecap:round;stroke-width:3;"/>
   </g>
   <g id="line2d_10">
    <path clip-path="url(#p25f69b5e4c)" d="M 117.9595 480.084375 
L 214.7855 480.084375 
" style="fill:none;stroke:#4c4c4c;stroke-linecap:round;stroke-width:3;"/>
   </g>
   <g id="line2d_11">
    <path clip-path="url(#p25f69b5e4c)" d="M 117.9595 74.571875 
L 214.7855 74.571875 
" style="fill:none;stroke:#4c4c4c;stroke-linecap:round;stroke-width:3;"/>
   </g>
   <g id="line2d_12">
    <path clip-path="url(#p25f69b5e4c)" d="M 408.4375 351.672083 
L 408.4375 439.533125 
" style="fill:none;stroke:#4c4c4c;stroke-linecap:round;stroke-width:3;"/>
   </g>
   <g id="line2d_13">
    <path clip-path="url(#p25f69b5e4c)" d="M 408.4375 263.811042 
L 408.4375 142.157292 
" style="fill:none;stroke:#4c4c4c;stroke-linecap:round;stroke-width:3;"/>
   </g>
   <g id="line2d_14">
    <path clip-path="url(#p25f69b5e4c)" d="M 360.0245 439.533125 
L 456.8505 439.533125 
" style="fill:none;stroke:#4c4c4c;stroke-linecap:round;stroke-width:3;"/>
   </g>
   <g id="line2d_15">
    <path clip-path="url(#p25f69b5e4c)" d="M 360.0245 142.157292 
L 456.8505 142.157292 
" style="fill:none;stroke:#4c4c4c;stroke-linecap:round;stroke-width:3;"/>
   </g>
   <g id="line2d_16">
    <path clip-path="url(#p25f69b5e4c)" d="M 69.5465 365.189167 
L 263.1985 365.189167 
" style="fill:none;stroke:#4c4c4c;stroke-linecap:round;stroke-width:3;"/>
   </g>
   <g id="line2d_17">
    <path clip-path="url(#p25f69b5e4c)" d="M 311.6115 311.120833 
L 505.2635 311.120833 
" style="fill:none;stroke:#4c4c4c;stroke-linecap:round;stroke-width:3;"/>
   </g>
   <g id="patch_5">
    <path d="M 45.34 500.36 
L 45.34 54.29625 
" style="fill:none;"/>
   </g>
   <g id="patch_6">
    <path d="M 529.47 500.36 
L 529.47 54.29625 
" style="fill:none;"/>
   </g>
   <g id="patch_7">
    <path d="M 45.34 500.36 
L 529.47 500.36 
" style="fill:none;"/>
   </g>
   <g id="patch_8">
    <path d="M 45.34 54.29625 
L 529.47 54.29625 
" style="fill:none;"/>
   </g>
   <g id="text_10">
    <!-- age for each income -->
    <g style="fill:#262626;" transform="translate(233.043125 48.29625)scale(0.12 -0.12)">
     <defs>
      <path d="M 40.4375 6.390625 
Q 35.546875 2.25 31.03125 0.53125 
Q 26.515625 -1.171875 21.34375 -1.171875 
Q 12.796875 -1.171875 8.203125 3 
Q 3.609375 7.171875 3.609375 13.671875 
Q 3.609375 17.484375 5.34375 20.625 
Q 7.078125 23.78125 9.890625 25.6875 
Q 12.703125 27.59375 16.21875 28.5625 
Q 18.796875 29.25 24.03125 29.890625 
Q 34.671875 31.15625 39.703125 32.90625 
Q 39.75 34.71875 39.75 35.203125 
Q 39.75 40.578125 37.25 42.78125 
Q 33.890625 45.75 27.25 45.75 
Q 21.046875 45.75 18.09375 43.578125 
Q 15.140625 41.40625 13.71875 35.890625 
L 5.125 37.0625 
Q 6.296875 42.578125 8.984375 45.96875 
Q 11.671875 49.359375 16.75 51.1875 
Q 21.828125 53.03125 28.515625 53.03125 
Q 35.15625 53.03125 39.296875 51.46875 
Q 43.453125 49.90625 45.40625 47.53125 
Q 47.359375 45.171875 48.140625 41.546875 
Q 48.578125 39.3125 48.578125 33.453125 
L 48.578125 21.734375 
Q 48.578125 9.46875 49.140625 6.21875 
Q 49.703125 2.984375 51.375 0 
L 42.1875 0 
Q 40.828125 2.734375 40.4375 6.390625 
z
M 39.703125 26.03125 
Q 34.90625 24.078125 25.34375 22.703125 
Q 19.921875 21.921875 17.671875 20.9375 
Q 15.4375 19.96875 14.203125 18.09375 
Q 12.984375 16.21875 12.984375 13.921875 
Q 12.984375 10.40625 15.640625 8.0625 
Q 18.3125 5.71875 23.4375 5.71875 
Q 28.515625 5.71875 32.46875 7.9375 
Q 36.421875 10.15625 38.28125 14.015625 
Q 39.703125 17 39.703125 22.796875 
z
" id="ArialMT-97"/>
      <path d="M 4.984375 -4.296875 
L 13.53125 -5.5625 
Q 14.0625 -9.515625 16.5 -11.328125 
Q 19.78125 -13.765625 25.4375 -13.765625 
Q 31.546875 -13.765625 34.859375 -11.328125 
Q 38.1875 -8.890625 39.359375 -4.5 
Q 40.046875 -1.8125 39.984375 6.78125 
Q 34.234375 0 25.640625 0 
Q 14.9375 0 9.078125 7.71875 
Q 3.21875 15.4375 3.21875 26.21875 
Q 3.21875 33.640625 5.90625 39.90625 
Q 8.59375 46.1875 13.6875 49.609375 
Q 18.796875 53.03125 25.6875 53.03125 
Q 34.859375 53.03125 40.828125 45.609375 
L 40.828125 51.859375 
L 48.921875 51.859375 
L 48.921875 7.03125 
Q 48.921875 -5.078125 46.453125 -10.125 
Q 44 -15.1875 38.640625 -18.109375 
Q 33.296875 -21.046875 25.484375 -21.046875 
Q 16.21875 -21.046875 10.5 -16.875 
Q 4.78125 -12.703125 4.984375 -4.296875 
z
M 12.25 26.859375 
Q 12.25 16.65625 16.296875 11.96875 
Q 20.359375 7.28125 26.46875 7.28125 
Q 32.515625 7.28125 36.609375 11.9375 
Q 40.71875 16.609375 40.71875 26.5625 
Q 40.71875 36.078125 36.5 40.90625 
Q 32.28125 45.75 26.3125 45.75 
Q 20.453125 45.75 16.34375 40.984375 
Q 12.25 36.234375 12.25 26.859375 
z
" id="ArialMT-103"/>
      <path d="M 42.09375 16.703125 
L 51.171875 15.578125 
Q 49.03125 7.625 43.21875 3.21875 
Q 37.40625 -1.171875 28.375 -1.171875 
Q 17 -1.171875 10.328125 5.828125 
Q 3.65625 12.84375 3.65625 25.484375 
Q 3.65625 38.578125 10.390625 45.796875 
Q 17.140625 53.03125 27.875 53.03125 
Q 38.28125 53.03125 44.875 45.953125 
Q 51.46875 38.875 51.46875 26.03125 
Q 51.46875 25.25 51.421875 23.6875 
L 12.75 23.6875 
Q 13.234375 15.140625 17.578125 10.59375 
Q 21.921875 6.0625 28.421875 6.0625 
Q 33.25 6.0625 36.671875 8.59375 
Q 40.09375 11.140625 42.09375 16.703125 
z
M 13.234375 30.90625 
L 42.1875 30.90625 
Q 41.609375 37.453125 38.875 40.71875 
Q 34.671875 45.796875 27.984375 45.796875 
Q 21.921875 45.796875 17.796875 41.75 
Q 13.671875 37.703125 13.234375 30.90625 
z
" id="ArialMT-101"/>
      <path id="ArialMT-32"/>
      <path d="M 8.6875 0 
L 8.6875 45.015625 
L 0.921875 45.015625 
L 0.921875 51.859375 
L 8.6875 51.859375 
L 8.6875 57.375 
Q 8.6875 62.59375 9.625 65.140625 
Q 10.890625 68.5625 14.078125 70.671875 
Q 17.28125 72.796875 23.046875 72.796875 
Q 26.765625 72.796875 31.25 71.921875 
L 29.9375 64.265625 
Q 27.203125 64.75 24.75 64.75 
Q 20.75 64.75 19.09375 63.03125 
Q 17.4375 61.328125 17.4375 56.640625 
L 17.4375 51.859375 
L 27.546875 51.859375 
L 27.546875 45.015625 
L 17.4375 45.015625 
L 17.4375 0 
z
" id="ArialMT-102"/>
      <path d="M 3.328125 25.921875 
Q 3.328125 40.328125 11.328125 47.265625 
Q 18.015625 53.03125 27.640625 53.03125 
Q 38.328125 53.03125 45.109375 46.015625 
Q 51.90625 39.015625 51.90625 26.65625 
Q 51.90625 16.65625 48.90625 10.90625 
Q 45.90625 5.171875 40.15625 2 
Q 34.421875 -1.171875 27.640625 -1.171875 
Q 16.75 -1.171875 10.03125 5.8125 
Q 3.328125 12.796875 3.328125 25.921875 
z
M 12.359375 25.921875 
Q 12.359375 15.96875 16.703125 11.015625 
Q 21.046875 6.0625 27.640625 6.0625 
Q 34.1875 6.0625 38.53125 11.03125 
Q 42.875 16.015625 42.875 26.21875 
Q 42.875 35.84375 38.5 40.796875 
Q 34.125 45.75 27.640625 45.75 
Q 21.046875 45.75 16.703125 40.8125 
Q 12.359375 35.890625 12.359375 25.921875 
z
" id="ArialMT-111"/>
      <path d="M 6.5 0 
L 6.5 51.859375 
L 14.40625 51.859375 
L 14.40625 44 
Q 17.4375 49.515625 20 51.265625 
Q 22.5625 53.03125 25.640625 53.03125 
Q 30.078125 53.03125 34.671875 50.203125 
L 31.640625 42.046875 
Q 28.421875 43.953125 25.203125 43.953125 
Q 22.3125 43.953125 20.015625 42.21875 
Q 17.71875 40.484375 16.75 37.40625 
Q 15.28125 32.71875 15.28125 27.15625 
L 15.28125 0 
z
" id="ArialMT-114"/>
      <path d="M 40.4375 19 
L 49.078125 17.875 
Q 47.65625 8.9375 41.8125 3.875 
Q 35.984375 -1.171875 27.484375 -1.171875 
Q 16.84375 -1.171875 10.375 5.78125 
Q 3.90625 12.75 3.90625 25.734375 
Q 3.90625 34.125 6.6875 40.421875 
Q 9.46875 46.734375 15.15625 49.875 
Q 20.84375 53.03125 27.546875 53.03125 
Q 35.984375 53.03125 41.359375 48.75 
Q 46.734375 44.484375 48.25 36.625 
L 39.703125 35.296875 
Q 38.484375 40.53125 35.375 43.15625 
Q 32.28125 45.796875 27.875 45.796875 
Q 21.234375 45.796875 17.078125 41.03125 
Q 12.9375 36.28125 12.9375 25.984375 
Q 12.9375 15.53125 16.9375 10.796875 
Q 20.953125 6.0625 27.390625 6.0625 
Q 32.5625 6.0625 36.03125 9.234375 
Q 39.5 12.40625 40.4375 19 
z
" id="ArialMT-99"/>
      <path d="M 6.59375 0 
L 6.59375 71.578125 
L 15.375 71.578125 
L 15.375 45.90625 
Q 21.53125 53.03125 30.90625 53.03125 
Q 36.671875 53.03125 40.921875 50.75 
Q 45.171875 48.484375 47 44.484375 
Q 48.828125 40.484375 48.828125 32.859375 
L 48.828125 0 
L 40.046875 0 
L 40.046875 32.859375 
Q 40.046875 39.453125 37.1875 42.453125 
Q 34.328125 45.453125 29.109375 45.453125 
Q 25.203125 45.453125 21.75 43.421875 
Q 18.3125 41.40625 16.84375 37.9375 
Q 15.375 34.46875 15.375 28.375 
L 15.375 0 
z
" id="ArialMT-104"/>
      <path d="M 6.640625 61.46875 
L 6.640625 71.578125 
L 15.4375 71.578125 
L 15.4375 61.46875 
z
M 6.640625 0 
L 6.640625 51.859375 
L 15.4375 51.859375 
L 15.4375 0 
z
" id="ArialMT-105"/>
      <path d="M 6.59375 0 
L 6.59375 51.859375 
L 14.5 51.859375 
L 14.5 44.484375 
Q 20.21875 53.03125 31 53.03125 
Q 35.6875 53.03125 39.625 51.34375 
Q 43.5625 49.65625 45.515625 46.921875 
Q 47.46875 44.1875 48.25 40.4375 
Q 48.734375 37.984375 48.734375 31.890625 
L 48.734375 0 
L 39.9375 0 
L 39.9375 31.546875 
Q 39.9375 36.921875 38.90625 39.578125 
Q 37.890625 42.234375 35.28125 43.8125 
Q 32.671875 45.40625 29.15625 45.40625 
Q 23.53125 45.40625 19.453125 41.84375 
Q 15.375 38.28125 15.375 28.328125 
L 15.375 0 
z
" id="ArialMT-110"/>
      <path d="M 6.59375 0 
L 6.59375 51.859375 
L 14.453125 51.859375 
L 14.453125 44.578125 
Q 16.890625 48.390625 20.9375 50.703125 
Q 25 53.03125 30.171875 53.03125 
Q 35.9375 53.03125 39.625 50.640625 
Q 43.3125 48.25 44.828125 43.953125 
Q 50.984375 53.03125 60.84375 53.03125 
Q 68.5625 53.03125 72.703125 48.75 
Q 76.859375 44.484375 76.859375 35.59375 
L 76.859375 0 
L 68.109375 0 
L 68.109375 32.671875 
Q 68.109375 37.9375 67.25 40.25 
Q 66.40625 42.578125 64.15625 43.984375 
Q 61.921875 45.40625 58.890625 45.40625 
Q 53.421875 45.40625 49.796875 41.765625 
Q 46.1875 38.140625 46.1875 30.125 
L 46.1875 0 
L 37.40625 0 
L 37.40625 33.6875 
Q 37.40625 39.546875 35.25 42.46875 
Q 33.109375 45.40625 28.21875 45.40625 
Q 24.515625 45.40625 21.359375 43.453125 
Q 18.21875 41.5 16.796875 37.734375 
Q 15.375 33.984375 15.375 26.90625 
L 15.375 0 
z
" id="ArialMT-109"/>
     </defs>
     <use xlink:href="#ArialMT-97"/>
     <use x="55.615234" xlink:href="#ArialMT-103"/>
     <use x="111.230469" xlink:href="#ArialMT-101"/>
     <use x="166.845703" xlink:href="#ArialMT-32"/>
     <use x="194.628906" xlink:href="#ArialMT-102"/>
     <use x="222.412109" xlink:href="#ArialMT-111"/>
     <use x="278.027344" xlink:href="#ArialMT-114"/>
     <use x="311.328125" xlink:href="#ArialMT-32"/>
     <use x="339.111328" xlink:href="#ArialMT-101"/>
     <use x="394.726562" xlink:href="#ArialMT-97"/>
     <use x="450.341797" xlink:href="#ArialMT-99"/>
     <use x="500.341797" xlink:href="#ArialMT-104"/>
     <use x="555.957031" xlink:href="#ArialMT-32"/>
     <use x="583.740234" xlink:href="#ArialMT-105"/>
     <use x="605.957031" xlink:href="#ArialMT-110"/>
     <use x="661.572266" xlink:href="#ArialMT-99"/>
     <use x="711.572266" xlink:href="#ArialMT-111"/>
     <use x="767.1875" xlink:href="#ArialMT-109"/>
     <use x="850.488281" xlink:href="#ArialMT-101"/>
    </g>
   </g>
  </g>
  <g id="axes_2">
   <g id="patch_9">
    <path d="M 582.91 500.36 
L 1067.04 500.36 
L 1067.04 54.29625 
L 582.91 54.29625 
z
" style="fill:#eaeaf2;"/>
   </g>
   <g id="matplotlib.axis_3">
    <g id="xtick_3">
     <g id="text_11">
      <!-- &lt;=50K -->
      <g style="fill:#262626;" transform="translate(689.205781 514.517812)scale(0.1 -0.1)">
       <use xlink:href="#ArialMT-60"/>
       <use x="58.398438" xlink:href="#ArialMT-61"/>
       <use x="116.796875" xlink:href="#ArialMT-53"/>
       <use x="172.412109" xlink:href="#ArialMT-48"/>
       <use x="228.027344" xlink:href="#ArialMT-75"/>
      </g>
     </g>
    </g>
    <g id="xtick_4">
     <g id="text_12">
      <!-- &gt;50K -->
      <g style="fill:#262626;" transform="translate(934.191094 514.517812)scale(0.1 -0.1)">
       <use xlink:href="#ArialMT-62"/>
       <use x="58.398438" xlink:href="#ArialMT-53"/>
       <use x="114.013672" xlink:href="#ArialMT-48"/>
       <use x="169.628906" xlink:href="#ArialMT-75"/>
      </g>
     </g>
    </g>
   </g>
   <g id="matplotlib.axis_4">
    <g id="ytick_8">
     <g id="line2d_18">
      <path clip-path="url(#p618d4dd927)" d="M 582.91 450.096599 
L 1067.04 450.096599 
" style="fill:none;stroke:#ffffff;stroke-linecap:round;"/>
     </g>
     <g id="text_13">
      <!-- 50000 -->
      <g style="fill:#262626;" transform="translate(548.105313 453.675505)scale(0.1 -0.1)">
       <use xlink:href="#ArialMT-53"/>
       <use x="55.615234" xlink:href="#ArialMT-48"/>
       <use x="111.230469" xlink:href="#ArialMT-48"/>
       <use x="166.845703" xlink:href="#ArialMT-48"/>
       <use x="222.460938" xlink:href="#ArialMT-48"/>
      </g>
     </g>
    </g>
    <g id="ytick_9">
     <g id="line2d_19">
      <path clip-path="url(#p618d4dd927)" d="M 582.91 399.573001 
L 1067.04 399.573001 
" style="fill:none;stroke:#ffffff;stroke-linecap:round;"/>
     </g>
     <g id="text_14">
      <!-- 100000 -->
      <g style="fill:#262626;" transform="translate(542.544375 403.151907)scale(0.1 -0.1)">
       <defs>
        <path d="M 37.25 0 
L 28.46875 0 
L 28.46875 56 
Q 25.296875 52.984375 20.140625 49.953125 
Q 14.984375 46.921875 10.890625 45.40625 
L 10.890625 53.90625 
Q 18.265625 57.375 23.78125 62.296875 
Q 29.296875 67.234375 31.59375 71.875 
L 37.25 71.875 
z
" id="ArialMT-49"/>
       </defs>
       <use xlink:href="#ArialMT-49"/>
       <use x="55.615234" xlink:href="#ArialMT-48"/>
       <use x="111.230469" xlink:href="#ArialMT-48"/>
       <use x="166.845703" xlink:href="#ArialMT-48"/>
       <use x="222.460938" xlink:href="#ArialMT-48"/>
       <use x="278.076172" xlink:href="#ArialMT-48"/>
      </g>
     </g>
    </g>
    <g id="ytick_10">
     <g id="line2d_20">
      <path clip-path="url(#p618d4dd927)" d="M 582.91 349.049403 
L 1067.04 349.049403 
" style="fill:none;stroke:#ffffff;stroke-linecap:round;"/>
     </g>
     <g id="text_15">
      <!-- 150000 -->
      <g style="fill:#262626;" transform="translate(542.544375 352.62831)scale(0.1 -0.1)">
       <use xlink:href="#ArialMT-49"/>
       <use x="55.615234" xlink:href="#ArialMT-53"/>
       <use x="111.230469" xlink:href="#ArialMT-48"/>
       <use x="166.845703" xlink:href="#ArialMT-48"/>
       <use x="222.460938" xlink:href="#ArialMT-48"/>
       <use x="278.076172" xlink:href="#ArialMT-48"/>
      </g>
     </g>
    </g>
    <g id="ytick_11">
     <g id="line2d_21">
      <path clip-path="url(#p618d4dd927)" d="M 582.91 298.525806 
L 1067.04 298.525806 
" style="fill:none;stroke:#ffffff;stroke-linecap:round;"/>
     </g>
     <g id="text_16">
      <!-- 200000 -->
      <g style="fill:#262626;" transform="translate(542.544375 302.104712)scale(0.1 -0.1)">
       <use xlink:href="#ArialMT-50"/>
       <use x="55.615234" xlink:href="#ArialMT-48"/>
       <use x="111.230469" xlink:href="#ArialMT-48"/>
       <use x="166.845703" xlink:href="#ArialMT-48"/>
       <use x="222.460938" xlink:href="#ArialMT-48"/>
       <use x="278.076172" xlink:href="#ArialMT-48"/>
      </g>
     </g>
    </g>
    <g id="ytick_12">
     <g id="line2d_22">
      <path clip-path="url(#p618d4dd927)" d="M 582.91 248.002208 
L 1067.04 248.002208 
" style="fill:none;stroke:#ffffff;stroke-linecap:round;"/>
     </g>
     <g id="text_17">
      <!-- 250000 -->
      <g style="fill:#262626;" transform="translate(542.544375 251.581114)scale(0.1 -0.1)">
       <use xlink:href="#ArialMT-50"/>
       <use x="55.615234" xlink:href="#ArialMT-53"/>
       <use x="111.230469" xlink:href="#ArialMT-48"/>
       <use x="166.845703" xlink:href="#ArialMT-48"/>
       <use x="222.460938" xlink:href="#ArialMT-48"/>
       <use x="278.076172" xlink:href="#ArialMT-48"/>
      </g>
     </g>
    </g>
    <g id="ytick_13">
     <g id="line2d_23">
      <path clip-path="url(#p618d4dd927)" d="M 582.91 197.47861 
L 1067.04 197.47861 
" style="fill:none;stroke:#ffffff;stroke-linecap:round;"/>
     </g>
     <g id="text_18">
      <!-- 300000 -->
      <g style="fill:#262626;" transform="translate(542.544375 201.057516)scale(0.1 -0.1)">
       <use xlink:href="#ArialMT-51"/>
       <use x="55.615234" xlink:href="#ArialMT-48"/>
       <use x="111.230469" xlink:href="#ArialMT-48"/>
       <use x="166.845703" xlink:href="#ArialMT-48"/>
       <use x="222.460938" xlink:href="#ArialMT-48"/>
       <use x="278.076172" xlink:href="#ArialMT-48"/>
      </g>
     </g>
    </g>
    <g id="ytick_14">
     <g id="line2d_24">
      <path clip-path="url(#p618d4dd927)" d="M 582.91 146.955013 
L 1067.04 146.955013 
" style="fill:none;stroke:#ffffff;stroke-linecap:round;"/>
     </g>
     <g id="text_19">
      <!-- 350000 -->
      <g style="fill:#262626;" transform="translate(542.544375 150.533919)scale(0.1 -0.1)">
       <use xlink:href="#ArialMT-51"/>
       <use x="55.615234" xlink:href="#ArialMT-53"/>
       <use x="111.230469" xlink:href="#ArialMT-48"/>
       <use x="166.845703" xlink:href="#ArialMT-48"/>
       <use x="222.460938" xlink:href="#ArialMT-48"/>
       <use x="278.076172" xlink:href="#ArialMT-48"/>
      </g>
     </g>
    </g>
    <g id="ytick_15">
     <g id="line2d_25">
      <path clip-path="url(#p618d4dd927)" d="M 582.91 96.431415 
L 1067.04 96.431415 
" style="fill:none;stroke:#ffffff;stroke-linecap:round;"/>
     </g>
     <g id="text_20">
      <!-- 400000 -->
      <g style="fill:#262626;" transform="translate(542.544375 100.010321)scale(0.1 -0.1)">
       <use xlink:href="#ArialMT-52"/>
       <use x="55.615234" xlink:href="#ArialMT-48"/>
       <use x="111.230469" xlink:href="#ArialMT-48"/>
       <use x="166.845703" xlink:href="#ArialMT-48"/>
       <use x="222.460938" xlink:href="#ArialMT-48"/>
       <use x="278.076172" xlink:href="#ArialMT-48"/>
      </g>
     </g>
    </g>
   </g>
   <g id="patch_10">
    <path clip-path="url(#p618d4dd927)" d="M 607.1165 383.32057 
L 800.7685 383.32057 
L 800.7685 261.226254 
L 607.1165 261.226254 
L 607.1165 383.32057 
z
" style="fill:#657897;stroke:#4c4c4c;stroke-linejoin:miter;stroke-width:3;"/>
   </g>
   <g id="patch_11">
    <path clip-path="url(#p618d4dd927)" d="M 849.1815 387.020413 
L 1042.8335 387.020413 
L 1042.8335 261.652674 
L 849.1815 261.652674 
L 849.1815 387.020413 
z
" style="fill:#6a9373;stroke:#4c4c4c;stroke-linejoin:miter;stroke-width:3;"/>
   </g>
   <g id="line2d_26">
    <path clip-path="url(#p618d4dd927)" d="M 703.9425 383.32057 
L 703.9425 480.084375 
" style="fill:none;stroke:#4c4c4c;stroke-linecap:round;stroke-width:3;"/>
   </g>
   <g id="line2d_27">
    <path clip-path="url(#p618d4dd927)" d="M 703.9425 261.226254 
L 703.9425 78.302537 
" style="fill:none;stroke:#4c4c4c;stroke-linecap:round;stroke-width:3;"/>
   </g>
   <g id="line2d_28">
    <path clip-path="url(#p618d4dd927)" d="M 655.5295 480.084375 
L 752.3555 480.084375 
" style="fill:none;stroke:#4c4c4c;stroke-linecap:round;stroke-width:3;"/>
   </g>
   <g id="line2d_29">
    <path clip-path="url(#p618d4dd927)" d="M 655.5295 78.302537 
L 752.3555 78.302537 
" style="fill:none;stroke:#4c4c4c;stroke-linecap:round;stroke-width:3;"/>
   </g>
   <g id="line2d_30">
    <path clip-path="url(#p618d4dd927)" d="M 946.0075 387.020413 
L 946.0075 477.639033 
" style="fill:none;stroke:#4c4c4c;stroke-linecap:round;stroke-width:3;"/>
   </g>
   <g id="line2d_31">
    <path clip-path="url(#p618d4dd927)" d="M 946.0075 261.652674 
L 946.0075 74.571875 
" style="fill:none;stroke:#4c4c4c;stroke-linecap:round;stroke-width:3;"/>
   </g>
   <g id="line2d_32">
    <path clip-path="url(#p618d4dd927)" d="M 897.5945 477.639033 
L 994.4205 477.639033 
" style="fill:none;stroke:#4c4c4c;stroke-linecap:round;stroke-width:3;"/>
   </g>
   <g id="line2d_33">
    <path clip-path="url(#p618d4dd927)" d="M 897.5945 74.571875 
L 994.4205 74.571875 
" style="fill:none;stroke:#4c4c4c;stroke-linecap:round;stroke-width:3;"/>
   </g>
   <g id="line2d_34">
    <path clip-path="url(#p618d4dd927)" d="M 607.1165 319.182884 
L 800.7685 319.182884 
" style="fill:none;stroke:#4c4c4c;stroke-linecap:round;stroke-width:3;"/>
   </g>
   <g id="line2d_35">
    <path clip-path="url(#p618d4dd927)" d="M 849.1815 329.737263 
L 1042.8335 329.737263 
" style="fill:none;stroke:#4c4c4c;stroke-linecap:round;stroke-width:3;"/>
   </g>
   <g id="patch_12">
    <path d="M 582.91 500.36 
L 582.91 54.29625 
" style="fill:none;"/>
   </g>
   <g id="patch_13">
    <path d="M 1067.04 500.36 
L 1067.04 54.29625 
" style="fill:none;"/>
   </g>
   <g id="patch_14">
    <path d="M 582.91 500.36 
L 1067.04 500.36 
" style="fill:none;"/>
   </g>
   <g id="patch_15">
    <path d="M 582.91 54.29625 
L 1067.04 54.29625 
" style="fill:none;"/>
   </g>
   <g id="text_21">
    <!-- fnlwgt for each income -->
    <g style="fill:#262626;" transform="translate(764.949688 48.29625)scale(0.12 -0.12)">
     <defs>
      <path d="M 6.390625 0 
L 6.390625 71.578125 
L 15.1875 71.578125 
L 15.1875 0 
z
" id="ArialMT-108"/>
      <path d="M 16.15625 0 
L 0.296875 51.859375 
L 9.375 51.859375 
L 17.625 21.921875 
L 20.703125 10.796875 
Q 20.90625 11.625 23.390625 21.484375 
L 31.640625 51.859375 
L 40.671875 51.859375 
L 48.4375 21.78125 
L 51.03125 11.859375 
L 54 21.875 
L 62.890625 51.859375 
L 71.4375 51.859375 
L 55.21875 0 
L 46.09375 0 
L 37.84375 31.0625 
L 35.84375 39.890625 
L 25.34375 0 
z
" id="ArialMT-119"/>
      <path d="M 25.78125 7.859375 
L 27.046875 0.09375 
Q 23.34375 -0.6875 20.40625 -0.6875 
Q 15.625 -0.6875 12.984375 0.828125 
Q 10.359375 2.34375 9.28125 4.8125 
Q 8.203125 7.28125 8.203125 15.1875 
L 8.203125 45.015625 
L 1.765625 45.015625 
L 1.765625 51.859375 
L 8.203125 51.859375 
L 8.203125 64.703125 
L 16.9375 69.96875 
L 16.9375 51.859375 
L 25.78125 51.859375 
L 25.78125 45.015625 
L 16.9375 45.015625 
L 16.9375 14.703125 
Q 16.9375 10.9375 17.40625 9.859375 
Q 17.875 8.796875 18.921875 8.15625 
Q 19.96875 7.515625 21.921875 7.515625 
Q 23.390625 7.515625 25.78125 7.859375 
z
" id="ArialMT-116"/>
     </defs>
     <use xlink:href="#ArialMT-102"/>
     <use x="27.783203" xlink:href="#ArialMT-110"/>
     <use x="83.398438" xlink:href="#ArialMT-108"/>
     <use x="105.615234" xlink:href="#ArialMT-119"/>
     <use x="177.832031" xlink:href="#ArialMT-103"/>
     <use x="233.447266" xlink:href="#ArialMT-116"/>
     <use x="261.230469" xlink:href="#ArialMT-32"/>
     <use x="289.013672" xlink:href="#ArialMT-102"/>
     <use x="316.796875" xlink:href="#ArialMT-111"/>
     <use x="372.412109" xlink:href="#ArialMT-114"/>
     <use x="405.712891" xlink:href="#ArialMT-32"/>
     <use x="433.496094" xlink:href="#ArialMT-101"/>
     <use x="489.111328" xlink:href="#ArialMT-97"/>
     <use x="544.726562" xlink:href="#ArialMT-99"/>
     <use x="594.726562" xlink:href="#ArialMT-104"/>
     <use x="650.341797" xlink:href="#ArialMT-32"/>
     <use x="678.125" xlink:href="#ArialMT-105"/>
     <use x="700.341797" xlink:href="#ArialMT-110"/>
     <use x="755.957031" xlink:href="#ArialMT-99"/>
     <use x="805.957031" xlink:href="#ArialMT-111"/>
     <use x="861.572266" xlink:href="#ArialMT-109"/>
     <use x="944.873047" xlink:href="#ArialMT-101"/>
    </g>
   </g>
  </g>
  <g id="axes_3">
   <g id="patch_16">
    <path d="M 45.34 991.16 
L 529.47 991.16 
L 529.47 545.09625 
L 45.34 545.09625 
z
" style="fill:#eaeaf2;"/>
   </g>
   <g id="matplotlib.axis_5">
    <g id="xtick_5">
     <g id="text_22">
      <!-- &lt;=50K -->
      <g style="fill:#262626;" transform="translate(151.635781 1005.317812)scale(0.1 -0.1)">
       <use xlink:href="#ArialMT-60"/>
       <use x="58.398438" xlink:href="#ArialMT-61"/>
       <use x="116.796875" xlink:href="#ArialMT-53"/>
       <use x="172.412109" xlink:href="#ArialMT-48"/>
       <use x="228.027344" xlink:href="#ArialMT-75"/>
      </g>
     </g>
    </g>
    <g id="xtick_6">
     <g id="text_23">
      <!-- &gt;50K -->
      <g style="fill:#262626;" transform="translate(396.621094 1005.317812)scale(0.1 -0.1)">
       <use xlink:href="#ArialMT-62"/>
       <use x="58.398438" xlink:href="#ArialMT-53"/>
       <use x="114.013672" xlink:href="#ArialMT-48"/>
       <use x="169.628906" xlink:href="#ArialMT-75"/>
      </g>
     </g>
    </g>
   </g>
   <g id="matplotlib.axis_6">
    <g id="ytick_16">
     <g id="line2d_36">
      <path clip-path="url(#pafe5d267f0)" d="M 45.34 970.884375 
L 529.47 970.884375 
" style="fill:none;stroke:#ffffff;stroke-linecap:round;"/>
     </g>
     <g id="text_24">
      <!-- 6 -->
      <g style="fill:#262626;" transform="translate(32.779062 974.463281)scale(0.1 -0.1)">
       <use xlink:href="#ArialMT-54"/>
      </g>
     </g>
    </g>
    <g id="ytick_17">
     <g id="line2d_37">
      <path clip-path="url(#pafe5d267f0)" d="M 45.34 889.781875 
L 529.47 889.781875 
" style="fill:none;stroke:#ffffff;stroke-linecap:round;"/>
     </g>
     <g id="text_25">
      <!-- 8 -->
      <g style="fill:#262626;" transform="translate(32.779062 893.360781)scale(0.1 -0.1)">
       <use xlink:href="#ArialMT-56"/>
      </g>
     </g>
    </g>
    <g id="ytick_18">
     <g id="line2d_38">
      <path clip-path="url(#pafe5d267f0)" d="M 45.34 808.679375 
L 529.47 808.679375 
" style="fill:none;stroke:#ffffff;stroke-linecap:round;"/>
     </g>
     <g id="text_26">
      <!-- 10 -->
      <g style="fill:#262626;" transform="translate(27.218125 812.258281)scale(0.1 -0.1)">
       <use xlink:href="#ArialMT-49"/>
       <use x="55.615234" xlink:href="#ArialMT-48"/>
      </g>
     </g>
    </g>
    <g id="ytick_19">
     <g id="line2d_39">
      <path clip-path="url(#pafe5d267f0)" d="M 45.34 727.576875 
L 529.47 727.576875 
" style="fill:none;stroke:#ffffff;stroke-linecap:round;"/>
     </g>
     <g id="text_27">
      <!-- 12 -->
      <g style="fill:#262626;" transform="translate(27.218125 731.155781)scale(0.1 -0.1)">
       <use xlink:href="#ArialMT-49"/>
       <use x="55.615234" xlink:href="#ArialMT-50"/>
      </g>
     </g>
    </g>
    <g id="ytick_20">
     <g id="line2d_40">
      <path clip-path="url(#pafe5d267f0)" d="M 45.34 646.474375 
L 529.47 646.474375 
" style="fill:none;stroke:#ffffff;stroke-linecap:round;"/>
     </g>
     <g id="text_28">
      <!-- 14 -->
      <g style="fill:#262626;" transform="translate(27.218125 650.053281)scale(0.1 -0.1)">
       <use xlink:href="#ArialMT-49"/>
       <use x="55.615234" xlink:href="#ArialMT-52"/>
      </g>
     </g>
    </g>
    <g id="ytick_21">
     <g id="line2d_41">
      <path clip-path="url(#pafe5d267f0)" d="M 45.34 565.371875 
L 529.47 565.371875 
" style="fill:none;stroke:#ffffff;stroke-linecap:round;"/>
     </g>
     <g id="text_29">
      <!-- 16 -->
      <g style="fill:#262626;" transform="translate(27.218125 568.950781)scale(0.1 -0.1)">
       <use xlink:href="#ArialMT-49"/>
       <use x="55.615234" xlink:href="#ArialMT-54"/>
      </g>
     </g>
    </g>
   </g>
   <g id="patch_17">
    <path clip-path="url(#pafe5d267f0)" d="M 69.5465 849.230625 
L 263.1985 849.230625 
L 263.1985 808.679375 
L 69.5465 808.679375 
L 69.5465 849.230625 
z
" style="fill:#657897;stroke:#4c4c4c;stroke-linejoin:miter;stroke-width:3;"/>
   </g>
   <g id="patch_18">
    <path clip-path="url(#pafe5d267f0)" d="M 311.6115 808.679375 
L 505.2635 808.679375 
L 505.2635 687.025625 
L 311.6115 687.025625 
L 311.6115 808.679375 
z
" style="fill:#6a9373;stroke:#4c4c4c;stroke-linejoin:miter;stroke-width:3;"/>
   </g>
   <g id="line2d_42">
    <path clip-path="url(#pafe5d267f0)" d="M 166.3725 849.230625 
L 166.3725 889.781875 
" style="fill:none;stroke:#4c4c4c;stroke-linecap:round;stroke-width:3;"/>
   </g>
   <g id="line2d_43">
    <path clip-path="url(#pafe5d267f0)" d="M 166.3725 808.679375 
L 166.3725 768.128125 
" style="fill:none;stroke:#4c4c4c;stroke-linecap:round;stroke-width:3;"/>
   </g>
   <g id="line2d_44">
    <path clip-path="url(#pafe5d267f0)" d="M 117.9595 889.781875 
L 214.7855 889.781875 
" style="fill:none;stroke:#4c4c4c;stroke-linecap:round;stroke-width:3;"/>
   </g>
   <g id="line2d_45">
    <path clip-path="url(#pafe5d267f0)" d="M 117.9595 768.128125 
L 214.7855 768.128125 
" style="fill:none;stroke:#4c4c4c;stroke-linecap:round;stroke-width:3;"/>
   </g>
   <g id="line2d_46">
    <path clip-path="url(#pafe5d267f0)" d="M 408.4375 808.679375 
L 408.4375 970.884375 
" style="fill:none;stroke:#4c4c4c;stroke-linecap:round;stroke-width:3;"/>
   </g>
   <g id="line2d_47">
    <path clip-path="url(#pafe5d267f0)" d="M 408.4375 687.025625 
L 408.4375 565.371875 
" style="fill:none;stroke:#4c4c4c;stroke-linecap:round;stroke-width:3;"/>
   </g>
   <g id="line2d_48">
    <path clip-path="url(#pafe5d267f0)" d="M 360.0245 970.884375 
L 456.8505 970.884375 
" style="fill:none;stroke:#4c4c4c;stroke-linecap:round;stroke-width:3;"/>
   </g>
   <g id="line2d_49">
    <path clip-path="url(#pafe5d267f0)" d="M 360.0245 565.371875 
L 456.8505 565.371875 
" style="fill:none;stroke:#4c4c4c;stroke-linecap:round;stroke-width:3;"/>
   </g>
   <g id="line2d_50">
    <path clip-path="url(#pafe5d267f0)" d="M 69.5465 849.230625 
L 263.1985 849.230625 
" style="fill:none;stroke:#4c4c4c;stroke-linecap:round;stroke-width:3;"/>
   </g>
   <g id="line2d_51">
    <path clip-path="url(#pafe5d267f0)" d="M 311.6115 687.025625 
L 505.2635 687.025625 
" style="fill:none;stroke:#4c4c4c;stroke-linecap:round;stroke-width:3;"/>
   </g>
   <g id="patch_19">
    <path d="M 45.34 991.16 
L 45.34 545.09625 
" style="fill:none;"/>
   </g>
   <g id="patch_20">
    <path d="M 529.47 991.16 
L 529.47 545.09625 
" style="fill:none;"/>
   </g>
   <g id="patch_21">
    <path d="M 45.34 991.16 
L 529.47 991.16 
" style="fill:none;"/>
   </g>
   <g id="patch_22">
    <path d="M 45.34 545.09625 
L 529.47 545.09625 
" style="fill:none;"/>
   </g>
   <g id="text_30">
    <!-- education-num for each income -->
    <g style="fill:#262626;" transform="translate(203.364688 539.09625)scale(0.12 -0.12)">
     <defs>
      <path d="M 40.234375 0 
L 40.234375 6.546875 
Q 35.296875 -1.171875 25.734375 -1.171875 
Q 19.53125 -1.171875 14.328125 2.25 
Q 9.125 5.671875 6.265625 11.796875 
Q 3.421875 17.921875 3.421875 25.875 
Q 3.421875 33.640625 6 39.96875 
Q 8.59375 46.296875 13.765625 49.65625 
Q 18.953125 53.03125 25.34375 53.03125 
Q 30.03125 53.03125 33.6875 51.046875 
Q 37.359375 49.078125 39.65625 45.90625 
L 39.65625 71.578125 
L 48.390625 71.578125 
L 48.390625 0 
z
M 12.453125 25.875 
Q 12.453125 15.921875 16.640625 10.984375 
Q 20.84375 6.0625 26.5625 6.0625 
Q 32.328125 6.0625 36.34375 10.765625 
Q 40.375 15.484375 40.375 25.140625 
Q 40.375 35.796875 36.265625 40.765625 
Q 32.171875 45.75 26.171875 45.75 
Q 20.3125 45.75 16.375 40.96875 
Q 12.453125 36.1875 12.453125 25.875 
z
" id="ArialMT-100"/>
      <path d="M 40.578125 0 
L 40.578125 7.625 
Q 34.515625 -1.171875 24.125 -1.171875 
Q 19.53125 -1.171875 15.546875 0.578125 
Q 11.578125 2.34375 9.640625 5 
Q 7.71875 7.671875 6.9375 11.53125 
Q 6.390625 14.109375 6.390625 19.734375 
L 6.390625 51.859375 
L 15.1875 51.859375 
L 15.1875 23.09375 
Q 15.1875 16.21875 15.71875 13.8125 
Q 16.546875 10.359375 19.234375 8.375 
Q 21.921875 6.390625 25.875 6.390625 
Q 29.828125 6.390625 33.296875 8.421875 
Q 36.765625 10.453125 38.203125 13.9375 
Q 39.65625 17.4375 39.65625 24.078125 
L 39.65625 51.859375 
L 48.4375 51.859375 
L 48.4375 0 
z
" id="ArialMT-117"/>
      <path d="M 3.171875 21.484375 
L 3.171875 30.328125 
L 30.171875 30.328125 
L 30.171875 21.484375 
z
" id="ArialMT-45"/>
     </defs>
     <use xlink:href="#ArialMT-101"/>
     <use x="55.615234" xlink:href="#ArialMT-100"/>
     <use x="111.230469" xlink:href="#ArialMT-117"/>
     <use x="166.845703" xlink:href="#ArialMT-99"/>
     <use x="216.845703" xlink:href="#ArialMT-97"/>
     <use x="272.460938" xlink:href="#ArialMT-116"/>
     <use x="300.244141" xlink:href="#ArialMT-105"/>
     <use x="322.460938" xlink:href="#ArialMT-111"/>
     <use x="378.076172" xlink:href="#ArialMT-110"/>
     <use x="433.691406" xlink:href="#ArialMT-45"/>
     <use x="466.992188" xlink:href="#ArialMT-110"/>
     <use x="522.607422" xlink:href="#ArialMT-117"/>
     <use x="578.222656" xlink:href="#ArialMT-109"/>
     <use x="661.523438" xlink:href="#ArialMT-32"/>
     <use x="689.306641" xlink:href="#ArialMT-102"/>
     <use x="717.089844" xlink:href="#ArialMT-111"/>
     <use x="772.705078" xlink:href="#ArialMT-114"/>
     <use x="806.005859" xlink:href="#ArialMT-32"/>
     <use x="833.789062" xlink:href="#ArialMT-101"/>
     <use x="889.404297" xlink:href="#ArialMT-97"/>
     <use x="945.019531" xlink:href="#ArialMT-99"/>
     <use x="995.019531" xlink:href="#ArialMT-104"/>
     <use x="1050.634766" xlink:href="#ArialMT-32"/>
     <use x="1078.417969" xlink:href="#ArialMT-105"/>
     <use x="1100.634766" xlink:href="#ArialMT-110"/>
     <use x="1156.25" xlink:href="#ArialMT-99"/>
     <use x="1206.25" xlink:href="#ArialMT-111"/>
     <use x="1261.865234" xlink:href="#ArialMT-109"/>
     <use x="1345.166016" xlink:href="#ArialMT-101"/>
    </g>
   </g>
  </g>
  <g id="axes_4">
   <g id="patch_23">
    <path d="M 582.91 991.16 
L 1067.04 991.16 
L 1067.04 545.09625 
L 582.91 545.09625 
z
" style="fill:#eaeaf2;"/>
   </g>
   <g id="matplotlib.axis_7">
    <g id="xtick_7">
     <g id="text_31">
      <!-- &lt;=50K -->
      <g style="fill:#262626;" transform="translate(689.205781 1005.317812)scale(0.1 -0.1)">
       <use xlink:href="#ArialMT-60"/>
       <use x="58.398438" xlink:href="#ArialMT-61"/>
       <use x="116.796875" xlink:href="#ArialMT-53"/>
       <use x="172.412109" xlink:href="#ArialMT-48"/>
       <use x="228.027344" xlink:href="#ArialMT-75"/>
      </g>
     </g>
    </g>
    <g id="xtick_8">
     <g id="text_32">
      <!-- &gt;50K -->
      <g style="fill:#262626;" transform="translate(934.191094 1005.317812)scale(0.1 -0.1)">
       <use xlink:href="#ArialMT-62"/>
       <use x="58.398438" xlink:href="#ArialMT-53"/>
       <use x="114.013672" xlink:href="#ArialMT-48"/>
       <use x="169.628906" xlink:href="#ArialMT-75"/>
      </g>
     </g>
    </g>
   </g>
   <g id="matplotlib.axis_8">
    <g id="ytick_22">
     <g id="line2d_52">
      <path clip-path="url(#p3a276949dc)" d="M 582.91 930.333125 
L 1067.04 930.333125 
" style="fill:none;stroke:#ffffff;stroke-linecap:round;"/>
     </g>
     <g id="text_33">
      <!-- −0.04 -->
      <g style="fill:#262626;" transform="translate(550.608438 933.912031)scale(0.1 -0.1)">
       <defs>
        <path d="M 52.828125 31.203125 
L 5.5625 31.203125 
L 5.5625 39.40625 
L 52.828125 39.40625 
z
" id="ArialMT-8722"/>
        <path d="M 9.078125 0 
L 9.078125 10.015625 
L 19.09375 10.015625 
L 19.09375 0 
z
" id="ArialMT-46"/>
       </defs>
       <use xlink:href="#ArialMT-8722"/>
       <use x="58.398438" xlink:href="#ArialMT-48"/>
       <use x="114.013672" xlink:href="#ArialMT-46"/>
       <use x="141.796875" xlink:href="#ArialMT-48"/>
       <use x="197.412109" xlink:href="#ArialMT-52"/>
      </g>
     </g>
    </g>
    <g id="ytick_23">
     <g id="line2d_53">
      <path clip-path="url(#p3a276949dc)" d="M 582.91 849.230625 
L 1067.04 849.230625 
" style="fill:none;stroke:#ffffff;stroke-linecap:round;"/>
     </g>
     <g id="text_34">
      <!-- −0.02 -->
      <g style="fill:#262626;" transform="translate(550.608438 852.809531)scale(0.1 -0.1)">
       <use xlink:href="#ArialMT-8722"/>
       <use x="58.398438" xlink:href="#ArialMT-48"/>
       <use x="114.013672" xlink:href="#ArialMT-46"/>
       <use x="141.796875" xlink:href="#ArialMT-48"/>
       <use x="197.412109" xlink:href="#ArialMT-50"/>
      </g>
     </g>
    </g>
    <g id="ytick_24">
     <g id="line2d_54">
      <path clip-path="url(#p3a276949dc)" d="M 582.91 768.128125 
L 1067.04 768.128125 
" style="fill:none;stroke:#ffffff;stroke-linecap:round;"/>
     </g>
     <g id="text_35">
      <!-- 0.00 -->
      <g style="fill:#262626;" transform="translate(556.449063 771.707031)scale(0.1 -0.1)">
       <use xlink:href="#ArialMT-48"/>
       <use x="55.615234" xlink:href="#ArialMT-46"/>
       <use x="83.398438" xlink:href="#ArialMT-48"/>
       <use x="139.013672" xlink:href="#ArialMT-48"/>
      </g>
     </g>
    </g>
    <g id="ytick_25">
     <g id="line2d_55">
      <path clip-path="url(#p3a276949dc)" d="M 582.91 687.025625 
L 1067.04 687.025625 
" style="fill:none;stroke:#ffffff;stroke-linecap:round;"/>
     </g>
     <g id="text_36">
      <!-- 0.02 -->
      <g style="fill:#262626;" transform="translate(556.449063 690.604531)scale(0.1 -0.1)">
       <use xlink:href="#ArialMT-48"/>
       <use x="55.615234" xlink:href="#ArialMT-46"/>
       <use x="83.398438" xlink:href="#ArialMT-48"/>
       <use x="139.013672" xlink:href="#ArialMT-50"/>
      </g>
     </g>
    </g>
    <g id="ytick_26">
     <g id="line2d_56">
      <path clip-path="url(#p3a276949dc)" d="M 582.91 605.923125 
L 1067.04 605.923125 
" style="fill:none;stroke:#ffffff;stroke-linecap:round;"/>
     </g>
     <g id="text_37">
      <!-- 0.04 -->
      <g style="fill:#262626;" transform="translate(556.449063 609.502031)scale(0.1 -0.1)">
       <use xlink:href="#ArialMT-48"/>
       <use x="55.615234" xlink:href="#ArialMT-46"/>
       <use x="83.398438" xlink:href="#ArialMT-48"/>
       <use x="139.013672" xlink:href="#ArialMT-52"/>
      </g>
     </g>
    </g>
   </g>
   <g id="patch_24">
    <path clip-path="url(#p3a276949dc)" d="M 607.1165 768.128125 
L 800.7685 768.128125 
L 800.7685 768.128125 
L 607.1165 768.128125 
L 607.1165 768.128125 
z
" style="fill:#657897;stroke:#4c4c4c;stroke-linejoin:miter;stroke-width:3;"/>
   </g>
   <g id="patch_25">
    <path clip-path="url(#p3a276949dc)" d="M 849.1815 768.128125 
L 1042.8335 768.128125 
L 1042.8335 768.128125 
L 849.1815 768.128125 
L 849.1815 768.128125 
z
" style="fill:#6a9373;stroke:#4c4c4c;stroke-linejoin:miter;stroke-width:3;"/>
   </g>
   <g id="line2d_57">
    <path clip-path="url(#p3a276949dc)" d="M 703.9425 768.128125 
L 703.9425 768.128125 
" style="fill:none;stroke:#4c4c4c;stroke-linecap:round;stroke-width:3;"/>
   </g>
   <g id="line2d_58">
    <path clip-path="url(#p3a276949dc)" d="M 703.9425 768.128125 
L 703.9425 768.128125 
" style="fill:none;stroke:#4c4c4c;stroke-linecap:round;stroke-width:3;"/>
   </g>
   <g id="line2d_59">
    <path clip-path="url(#p3a276949dc)" d="M 655.5295 768.128125 
L 752.3555 768.128125 
" style="fill:none;stroke:#4c4c4c;stroke-linecap:round;stroke-width:3;"/>
   </g>
   <g id="line2d_60">
    <path clip-path="url(#p3a276949dc)" d="M 655.5295 768.128125 
L 752.3555 768.128125 
" style="fill:none;stroke:#4c4c4c;stroke-linecap:round;stroke-width:3;"/>
   </g>
   <g id="line2d_61">
    <path clip-path="url(#p3a276949dc)" d="M 946.0075 768.128125 
L 946.0075 768.128125 
" style="fill:none;stroke:#4c4c4c;stroke-linecap:round;stroke-width:3;"/>
   </g>
   <g id="line2d_62">
    <path clip-path="url(#p3a276949dc)" d="M 946.0075 768.128125 
L 946.0075 768.128125 
" style="fill:none;stroke:#4c4c4c;stroke-linecap:round;stroke-width:3;"/>
   </g>
   <g id="line2d_63">
    <path clip-path="url(#p3a276949dc)" d="M 897.5945 768.128125 
L 994.4205 768.128125 
" style="fill:none;stroke:#4c4c4c;stroke-linecap:round;stroke-width:3;"/>
   </g>
   <g id="line2d_64">
    <path clip-path="url(#p3a276949dc)" d="M 897.5945 768.128125 
L 994.4205 768.128125 
" style="fill:none;stroke:#4c4c4c;stroke-linecap:round;stroke-width:3;"/>
   </g>
   <g id="line2d_65">
    <path clip-path="url(#p3a276949dc)" d="M 607.1165 768.128125 
L 800.7685 768.128125 
" style="fill:none;stroke:#4c4c4c;stroke-linecap:round;stroke-width:3;"/>
   </g>
   <g id="line2d_66">
    <path clip-path="url(#p3a276949dc)" d="M 849.1815 768.128125 
L 1042.8335 768.128125 
" style="fill:none;stroke:#4c4c4c;stroke-linecap:round;stroke-width:3;"/>
   </g>
   <g id="patch_26">
    <path d="M 582.91 991.16 
L 582.91 545.09625 
" style="fill:none;"/>
   </g>
   <g id="patch_27">
    <path d="M 1067.04 991.16 
L 1067.04 545.09625 
" style="fill:none;"/>
   </g>
   <g id="patch_28">
    <path d="M 582.91 991.16 
L 1067.04 991.16 
" style="fill:none;"/>
   </g>
   <g id="patch_29">
    <path d="M 582.91 545.09625 
L 1067.04 545.09625 
" style="fill:none;"/>
   </g>
   <g id="text_38">
    <!-- capital-gain for each income -->
    <g style="fill:#262626;" transform="translate(749.939375 539.09625)scale(0.12 -0.12)">
     <defs>
      <path d="M 6.59375 -19.875 
L 6.59375 51.859375 
L 14.59375 51.859375 
L 14.59375 45.125 
Q 17.4375 49.078125 21 51.046875 
Q 24.5625 53.03125 29.640625 53.03125 
Q 36.28125 53.03125 41.359375 49.609375 
Q 46.4375 46.1875 49.015625 39.953125 
Q 51.609375 33.734375 51.609375 26.3125 
Q 51.609375 18.359375 48.75 11.984375 
Q 45.90625 5.609375 40.453125 2.21875 
Q 35.015625 -1.171875 29 -1.171875 
Q 24.609375 -1.171875 21.109375 0.6875 
Q 17.625 2.546875 15.375 5.375 
L 15.375 -19.875 
z
M 14.546875 25.640625 
Q 14.546875 15.625 18.59375 10.84375 
Q 22.65625 6.0625 28.421875 6.0625 
Q 34.28125 6.0625 38.453125 11.015625 
Q 42.625 15.96875 42.625 26.375 
Q 42.625 36.28125 38.546875 41.203125 
Q 34.46875 46.140625 28.8125 46.140625 
Q 23.1875 46.140625 18.859375 40.890625 
Q 14.546875 35.640625 14.546875 25.640625 
z
" id="ArialMT-112"/>
     </defs>
     <use xlink:href="#ArialMT-99"/>
     <use x="50" xlink:href="#ArialMT-97"/>
     <use x="105.615234" xlink:href="#ArialMT-112"/>
     <use x="161.230469" xlink:href="#ArialMT-105"/>
     <use x="183.447266" xlink:href="#ArialMT-116"/>
     <use x="211.230469" xlink:href="#ArialMT-97"/>
     <use x="266.845703" xlink:href="#ArialMT-108"/>
     <use x="289.0625" xlink:href="#ArialMT-45"/>
     <use x="322.363281" xlink:href="#ArialMT-103"/>
     <use x="377.978516" xlink:href="#ArialMT-97"/>
     <use x="433.59375" xlink:href="#ArialMT-105"/>
     <use x="455.810547" xlink:href="#ArialMT-110"/>
     <use x="511.425781" xlink:href="#ArialMT-32"/>
     <use x="539.208984" xlink:href="#ArialMT-102"/>
     <use x="566.992188" xlink:href="#ArialMT-111"/>
     <use x="622.607422" xlink:href="#ArialMT-114"/>
     <use x="655.908203" xlink:href="#ArialMT-32"/>
     <use x="683.691406" xlink:href="#ArialMT-101"/>
     <use x="739.306641" xlink:href="#ArialMT-97"/>
     <use x="794.921875" xlink:href="#ArialMT-99"/>
     <use x="844.921875" xlink:href="#ArialMT-104"/>
     <use x="900.537109" xlink:href="#ArialMT-32"/>
     <use x="928.320312" xlink:href="#ArialMT-105"/>
     <use x="950.537109" xlink:href="#ArialMT-110"/>
     <use x="1006.152344" xlink:href="#ArialMT-99"/>
     <use x="1056.152344" xlink:href="#ArialMT-111"/>
     <use x="1111.767578" xlink:href="#ArialMT-109"/>
     <use x="1195.068359" xlink:href="#ArialMT-101"/>
    </g>
   </g>
  </g>
  <g id="axes_5">
   <g id="patch_30">
    <path d="M 45.34 1481.96 
L 529.47 1481.96 
L 529.47 1035.89625 
L 45.34 1035.89625 
z
" style="fill:#eaeaf2;"/>
   </g>
   <g id="matplotlib.axis_9">
    <g id="xtick_9">
     <g id="text_39">
      <!-- &lt;=50K -->
      <g style="fill:#262626;" transform="translate(151.635781 1496.117812)scale(0.1 -0.1)">
       <use xlink:href="#ArialMT-60"/>
       <use x="58.398438" xlink:href="#ArialMT-61"/>
       <use x="116.796875" xlink:href="#ArialMT-53"/>
       <use x="172.412109" xlink:href="#ArialMT-48"/>
       <use x="228.027344" xlink:href="#ArialMT-75"/>
      </g>
     </g>
    </g>
    <g id="xtick_10">
     <g id="text_40">
      <!-- &gt;50K -->
      <g style="fill:#262626;" transform="translate(396.621094 1496.117812)scale(0.1 -0.1)">
       <use xlink:href="#ArialMT-62"/>
       <use x="58.398438" xlink:href="#ArialMT-53"/>
       <use x="114.013672" xlink:href="#ArialMT-48"/>
       <use x="169.628906" xlink:href="#ArialMT-75"/>
      </g>
     </g>
    </g>
   </g>
   <g id="matplotlib.axis_10">
    <g id="ytick_27">
     <g id="line2d_67">
      <path clip-path="url(#p3cc4a3b5b8)" d="M 45.34 1421.133125 
L 529.47 1421.133125 
" style="fill:none;stroke:#ffffff;stroke-linecap:round;"/>
     </g>
     <g id="text_41">
      <!-- −0.04 -->
      <g style="fill:#262626;" transform="translate(13.038437 1424.712031)scale(0.1 -0.1)">
       <use xlink:href="#ArialMT-8722"/>
       <use x="58.398438" xlink:href="#ArialMT-48"/>
       <use x="114.013672" xlink:href="#ArialMT-46"/>
       <use x="141.796875" xlink:href="#ArialMT-48"/>
       <use x="197.412109" xlink:href="#ArialMT-52"/>
      </g>
     </g>
    </g>
    <g id="ytick_28">
     <g id="line2d_68">
      <path clip-path="url(#p3cc4a3b5b8)" d="M 45.34 1340.030625 
L 529.47 1340.030625 
" style="fill:none;stroke:#ffffff;stroke-linecap:round;"/>
     </g>
     <g id="text_42">
      <!-- −0.02 -->
      <g style="fill:#262626;" transform="translate(13.038437 1343.609531)scale(0.1 -0.1)">
       <use xlink:href="#ArialMT-8722"/>
       <use x="58.398438" xlink:href="#ArialMT-48"/>
       <use x="114.013672" xlink:href="#ArialMT-46"/>
       <use x="141.796875" xlink:href="#ArialMT-48"/>
       <use x="197.412109" xlink:href="#ArialMT-50"/>
      </g>
     </g>
    </g>
    <g id="ytick_29">
     <g id="line2d_69">
      <path clip-path="url(#p3cc4a3b5b8)" d="M 45.34 1258.928125 
L 529.47 1258.928125 
" style="fill:none;stroke:#ffffff;stroke-linecap:round;"/>
     </g>
     <g id="text_43">
      <!-- 0.00 -->
      <g style="fill:#262626;" transform="translate(18.879062 1262.507031)scale(0.1 -0.1)">
       <use xlink:href="#ArialMT-48"/>
       <use x="55.615234" xlink:href="#ArialMT-46"/>
       <use x="83.398438" xlink:href="#ArialMT-48"/>
       <use x="139.013672" xlink:href="#ArialMT-48"/>
      </g>
     </g>
    </g>
    <g id="ytick_30">
     <g id="line2d_70">
      <path clip-path="url(#p3cc4a3b5b8)" d="M 45.34 1177.825625 
L 529.47 1177.825625 
" style="fill:none;stroke:#ffffff;stroke-linecap:round;"/>
     </g>
     <g id="text_44">
      <!-- 0.02 -->
      <g style="fill:#262626;" transform="translate(18.879062 1181.404531)scale(0.1 -0.1)">
       <use xlink:href="#ArialMT-48"/>
       <use x="55.615234" xlink:href="#ArialMT-46"/>
       <use x="83.398438" xlink:href="#ArialMT-48"/>
       <use x="139.013672" xlink:href="#ArialMT-50"/>
      </g>
     </g>
    </g>
    <g id="ytick_31">
     <g id="line2d_71">
      <path clip-path="url(#p3cc4a3b5b8)" d="M 45.34 1096.723125 
L 529.47 1096.723125 
" style="fill:none;stroke:#ffffff;stroke-linecap:round;"/>
     </g>
     <g id="text_45">
      <!-- 0.04 -->
      <g style="fill:#262626;" transform="translate(18.879062 1100.302031)scale(0.1 -0.1)">
       <use xlink:href="#ArialMT-48"/>
       <use x="55.615234" xlink:href="#ArialMT-46"/>
       <use x="83.398438" xlink:href="#ArialMT-48"/>
       <use x="139.013672" xlink:href="#ArialMT-52"/>
      </g>
     </g>
    </g>
   </g>
   <g id="patch_31">
    <path clip-path="url(#p3cc4a3b5b8)" d="M 69.5465 1258.928125 
L 263.1985 1258.928125 
L 263.1985 1258.928125 
L 69.5465 1258.928125 
L 69.5465 1258.928125 
z
" style="fill:#657897;stroke:#4c4c4c;stroke-linejoin:miter;stroke-width:3;"/>
   </g>
   <g id="patch_32">
    <path clip-path="url(#p3cc4a3b5b8)" d="M 311.6115 1258.928125 
L 505.2635 1258.928125 
L 505.2635 1258.928125 
L 311.6115 1258.928125 
L 311.6115 1258.928125 
z
" style="fill:#6a9373;stroke:#4c4c4c;stroke-linejoin:miter;stroke-width:3;"/>
   </g>
   <g id="line2d_72">
    <path clip-path="url(#p3cc4a3b5b8)" d="M 166.3725 1258.928125 
L 166.3725 1258.928125 
" style="fill:none;stroke:#4c4c4c;stroke-linecap:round;stroke-width:3;"/>
   </g>
   <g id="line2d_73">
    <path clip-path="url(#p3cc4a3b5b8)" d="M 166.3725 1258.928125 
L 166.3725 1258.928125 
" style="fill:none;stroke:#4c4c4c;stroke-linecap:round;stroke-width:3;"/>
   </g>
   <g id="line2d_74">
    <path clip-path="url(#p3cc4a3b5b8)" d="M 117.9595 1258.928125 
L 214.7855 1258.928125 
" style="fill:none;stroke:#4c4c4c;stroke-linecap:round;stroke-width:3;"/>
   </g>
   <g id="line2d_75">
    <path clip-path="url(#p3cc4a3b5b8)" d="M 117.9595 1258.928125 
L 214.7855 1258.928125 
" style="fill:none;stroke:#4c4c4c;stroke-linecap:round;stroke-width:3;"/>
   </g>
   <g id="line2d_76">
    <path clip-path="url(#p3cc4a3b5b8)" d="M 408.4375 1258.928125 
L 408.4375 1258.928125 
" style="fill:none;stroke:#4c4c4c;stroke-linecap:round;stroke-width:3;"/>
   </g>
   <g id="line2d_77">
    <path clip-path="url(#p3cc4a3b5b8)" d="M 408.4375 1258.928125 
L 408.4375 1258.928125 
" style="fill:none;stroke:#4c4c4c;stroke-linecap:round;stroke-width:3;"/>
   </g>
   <g id="line2d_78">
    <path clip-path="url(#p3cc4a3b5b8)" d="M 360.0245 1258.928125 
L 456.8505 1258.928125 
" style="fill:none;stroke:#4c4c4c;stroke-linecap:round;stroke-width:3;"/>
   </g>
   <g id="line2d_79">
    <path clip-path="url(#p3cc4a3b5b8)" d="M 360.0245 1258.928125 
L 456.8505 1258.928125 
" style="fill:none;stroke:#4c4c4c;stroke-linecap:round;stroke-width:3;"/>
   </g>
   <g id="line2d_80">
    <path clip-path="url(#p3cc4a3b5b8)" d="M 69.5465 1258.928125 
L 263.1985 1258.928125 
" style="fill:none;stroke:#4c4c4c;stroke-linecap:round;stroke-width:3;"/>
   </g>
   <g id="line2d_81">
    <path clip-path="url(#p3cc4a3b5b8)" d="M 311.6115 1258.928125 
L 505.2635 1258.928125 
" style="fill:none;stroke:#4c4c4c;stroke-linecap:round;stroke-width:3;"/>
   </g>
   <g id="patch_33">
    <path d="M 45.34 1481.96 
L 45.34 1035.89625 
" style="fill:none;"/>
   </g>
   <g id="patch_34">
    <path d="M 529.47 1481.96 
L 529.47 1035.89625 
" style="fill:none;"/>
   </g>
   <g id="patch_35">
    <path d="M 45.34 1481.96 
L 529.47 1481.96 
" style="fill:none;"/>
   </g>
   <g id="patch_36">
    <path d="M 45.34 1035.89625 
L 529.47 1035.89625 
" style="fill:none;"/>
   </g>
   <g id="text_46">
    <!-- capital-loss for each income -->
    <g style="fill:#262626;" transform="translate(213.0425 1029.89625)scale(0.12 -0.12)">
     <defs>
      <path d="M 3.078125 15.484375 
L 11.765625 16.84375 
Q 12.5 11.625 15.84375 8.84375 
Q 19.1875 6.0625 25.203125 6.0625 
Q 31.25 6.0625 34.171875 8.515625 
Q 37.109375 10.984375 37.109375 14.3125 
Q 37.109375 17.28125 34.515625 19 
Q 32.71875 20.171875 25.53125 21.96875 
Q 15.875 24.421875 12.140625 26.203125 
Q 8.40625 27.984375 6.46875 31.125 
Q 4.546875 34.28125 4.546875 38.09375 
Q 4.546875 41.546875 6.125 44.5 
Q 7.71875 47.46875 10.453125 49.421875 
Q 12.5 50.921875 16.03125 51.96875 
Q 19.578125 53.03125 23.640625 53.03125 
Q 29.734375 53.03125 34.34375 51.265625 
Q 38.96875 49.515625 41.15625 46.5 
Q 43.359375 43.5 44.1875 38.484375 
L 35.59375 37.3125 
Q 35.015625 41.3125 32.203125 43.546875 
Q 29.390625 45.796875 24.265625 45.796875 
Q 18.21875 45.796875 15.625 43.796875 
Q 13.03125 41.796875 13.03125 39.109375 
Q 13.03125 37.40625 14.109375 36.03125 
Q 15.1875 34.625 17.484375 33.6875 
Q 18.796875 33.203125 25.25 31.453125 
Q 34.578125 28.953125 38.25 27.359375 
Q 41.9375 25.78125 44.03125 22.75 
Q 46.140625 19.734375 46.140625 15.234375 
Q 46.140625 10.84375 43.578125 6.953125 
Q 41.015625 3.078125 36.171875 0.953125 
Q 31.34375 -1.171875 25.25 -1.171875 
Q 15.140625 -1.171875 9.84375 3.03125 
Q 4.546875 7.234375 3.078125 15.484375 
z
" id="ArialMT-115"/>
     </defs>
     <use xlink:href="#ArialMT-99"/>
     <use x="50" xlink:href="#ArialMT-97"/>
     <use x="105.615234" xlink:href="#ArialMT-112"/>
     <use x="161.230469" xlink:href="#ArialMT-105"/>
     <use x="183.447266" xlink:href="#ArialMT-116"/>
     <use x="211.230469" xlink:href="#ArialMT-97"/>
     <use x="266.845703" xlink:href="#ArialMT-108"/>
     <use x="289.0625" xlink:href="#ArialMT-45"/>
     <use x="322.363281" xlink:href="#ArialMT-108"/>
     <use x="344.580078" xlink:href="#ArialMT-111"/>
     <use x="400.195312" xlink:href="#ArialMT-115"/>
     <use x="450.195312" xlink:href="#ArialMT-115"/>
     <use x="500.195312" xlink:href="#ArialMT-32"/>
     <use x="527.978516" xlink:href="#ArialMT-102"/>
     <use x="555.761719" xlink:href="#ArialMT-111"/>
     <use x="611.376953" xlink:href="#ArialMT-114"/>
     <use x="644.677734" xlink:href="#ArialMT-32"/>
     <use x="672.460938" xlink:href="#ArialMT-101"/>
     <use x="728.076172" xlink:href="#ArialMT-97"/>
     <use x="783.691406" xlink:href="#ArialMT-99"/>
     <use x="833.691406" xlink:href="#ArialMT-104"/>
     <use x="889.306641" xlink:href="#ArialMT-32"/>
     <use x="917.089844" xlink:href="#ArialMT-105"/>
     <use x="939.306641" xlink:href="#ArialMT-110"/>
     <use x="994.921875" xlink:href="#ArialMT-99"/>
     <use x="1044.921875" xlink:href="#ArialMT-111"/>
     <use x="1100.537109" xlink:href="#ArialMT-109"/>
     <use x="1183.837891" xlink:href="#ArialMT-101"/>
    </g>
   </g>
  </g>
  <g id="axes_6">
   <g id="patch_37">
    <path d="M 582.91 1481.96 
L 1067.04 1481.96 
L 1067.04 1035.89625 
L 582.91 1035.89625 
z
" style="fill:#eaeaf2;"/>
   </g>
   <g id="matplotlib.axis_11">
    <g id="xtick_11">
     <g id="text_47">
      <!-- &lt;=50K -->
      <g style="fill:#262626;" transform="translate(689.205781 1496.117812)scale(0.1 -0.1)">
       <use xlink:href="#ArialMT-60"/>
       <use x="58.398438" xlink:href="#ArialMT-61"/>
       <use x="116.796875" xlink:href="#ArialMT-53"/>
       <use x="172.412109" xlink:href="#ArialMT-48"/>
       <use x="228.027344" xlink:href="#ArialMT-75"/>
      </g>
     </g>
    </g>
    <g id="xtick_12">
     <g id="text_48">
      <!-- &gt;50K -->
      <g style="fill:#262626;" transform="translate(934.191094 1496.117812)scale(0.1 -0.1)">
       <use xlink:href="#ArialMT-62"/>
       <use x="58.398438" xlink:href="#ArialMT-53"/>
       <use x="114.013672" xlink:href="#ArialMT-48"/>
       <use x="169.628906" xlink:href="#ArialMT-75"/>
      </g>
     </g>
    </g>
   </g>
   <g id="matplotlib.axis_12">
    <g id="ytick_32">
     <g id="line2d_82">
      <path clip-path="url(#pee975aabe6)" d="M 582.91 1461.684375 
L 1067.04 1461.684375 
" style="fill:none;stroke:#ffffff;stroke-linecap:round;"/>
     </g>
     <g id="text_49">
      <!-- 25 -->
      <g style="fill:#262626;" transform="translate(564.788125 1465.263281)scale(0.1 -0.1)">
       <use xlink:href="#ArialMT-50"/>
       <use x="55.615234" xlink:href="#ArialMT-53"/>
      </g>
     </g>
    </g>
    <g id="ytick_33">
     <g id="line2d_83">
      <path clip-path="url(#pee975aabe6)" d="M 582.91 1410.995312 
L 1067.04 1410.995312 
" style="fill:none;stroke:#ffffff;stroke-linecap:round;"/>
     </g>
     <g id="text_50">
      <!-- 30 -->
      <g style="fill:#262626;" transform="translate(564.788125 1414.574219)scale(0.1 -0.1)">
       <use xlink:href="#ArialMT-51"/>
       <use x="55.615234" xlink:href="#ArialMT-48"/>
      </g>
     </g>
    </g>
    <g id="ytick_34">
     <g id="line2d_84">
      <path clip-path="url(#pee975aabe6)" d="M 582.91 1360.30625 
L 1067.04 1360.30625 
" style="fill:none;stroke:#ffffff;stroke-linecap:round;"/>
     </g>
     <g id="text_51">
      <!-- 35 -->
      <g style="fill:#262626;" transform="translate(564.788125 1363.885156)scale(0.1 -0.1)">
       <use xlink:href="#ArialMT-51"/>
       <use x="55.615234" xlink:href="#ArialMT-53"/>
      </g>
     </g>
    </g>
    <g id="ytick_35">
     <g id="line2d_85">
      <path clip-path="url(#pee975aabe6)" d="M 582.91 1309.617188 
L 1067.04 1309.617188 
" style="fill:none;stroke:#ffffff;stroke-linecap:round;"/>
     </g>
     <g id="text_52">
      <!-- 40 -->
      <g style="fill:#262626;" transform="translate(564.788125 1313.196094)scale(0.1 -0.1)">
       <use xlink:href="#ArialMT-52"/>
       <use x="55.615234" xlink:href="#ArialMT-48"/>
      </g>
     </g>
    </g>
    <g id="ytick_36">
     <g id="line2d_86">
      <path clip-path="url(#pee975aabe6)" d="M 582.91 1258.928125 
L 1067.04 1258.928125 
" style="fill:none;stroke:#ffffff;stroke-linecap:round;"/>
     </g>
     <g id="text_53">
      <!-- 45 -->
      <g style="fill:#262626;" transform="translate(564.788125 1262.507031)scale(0.1 -0.1)">
       <use xlink:href="#ArialMT-52"/>
       <use x="55.615234" xlink:href="#ArialMT-53"/>
      </g>
     </g>
    </g>
    <g id="ytick_37">
     <g id="line2d_87">
      <path clip-path="url(#pee975aabe6)" d="M 582.91 1208.239062 
L 1067.04 1208.239062 
" style="fill:none;stroke:#ffffff;stroke-linecap:round;"/>
     </g>
     <g id="text_54">
      <!-- 50 -->
      <g style="fill:#262626;" transform="translate(564.788125 1211.817969)scale(0.1 -0.1)">
       <use xlink:href="#ArialMT-53"/>
       <use x="55.615234" xlink:href="#ArialMT-48"/>
      </g>
     </g>
    </g>
    <g id="ytick_38">
     <g id="line2d_88">
      <path clip-path="url(#pee975aabe6)" d="M 582.91 1157.55 
L 1067.04 1157.55 
" style="fill:none;stroke:#ffffff;stroke-linecap:round;"/>
     </g>
     <g id="text_55">
      <!-- 55 -->
      <g style="fill:#262626;" transform="translate(564.788125 1161.128906)scale(0.1 -0.1)">
       <use xlink:href="#ArialMT-53"/>
       <use x="55.615234" xlink:href="#ArialMT-53"/>
      </g>
     </g>
    </g>
    <g id="ytick_39">
     <g id="line2d_89">
      <path clip-path="url(#pee975aabe6)" d="M 582.91 1106.860937 
L 1067.04 1106.860937 
" style="fill:none;stroke:#ffffff;stroke-linecap:round;"/>
     </g>
     <g id="text_56">
      <!-- 60 -->
      <g style="fill:#262626;" transform="translate(564.788125 1110.439844)scale(0.1 -0.1)">
       <use xlink:href="#ArialMT-54"/>
       <use x="55.615234" xlink:href="#ArialMT-48"/>
      </g>
     </g>
    </g>
    <g id="ytick_40">
     <g id="line2d_90">
      <path clip-path="url(#pee975aabe6)" d="M 582.91 1056.171875 
L 1067.04 1056.171875 
" style="fill:none;stroke:#ffffff;stroke-linecap:round;"/>
     </g>
     <g id="text_57">
      <!-- 65 -->
      <g style="fill:#262626;" transform="translate(564.788125 1059.750781)scale(0.1 -0.1)">
       <use xlink:href="#ArialMT-54"/>
       <use x="55.615234" xlink:href="#ArialMT-53"/>
      </g>
     </g>
    </g>
   </g>
   <g id="patch_38">
    <path clip-path="url(#pee975aabe6)" d="M 607.1165 1360.30625 
L 800.7685 1360.30625 
L 800.7685 1309.617188 
L 607.1165 1309.617188 
L 607.1165 1360.30625 
z
" style="fill:#657897;stroke:#4c4c4c;stroke-linejoin:miter;stroke-width:3;"/>
   </g>
   <g id="patch_39">
    <path clip-path="url(#pee975aabe6)" d="M 849.1815 1309.617188 
L 1042.8335 1309.617188 
L 1042.8335 1208.239062 
L 849.1815 1208.239062 
L 849.1815 1309.617188 
z
" style="fill:#6a9373;stroke:#4c4c4c;stroke-linejoin:miter;stroke-width:3;"/>
   </g>
   <g id="line2d_91">
    <path clip-path="url(#pee975aabe6)" d="M 703.9425 1360.30625 
L 703.9425 1431.270937 
" style="fill:none;stroke:#4c4c4c;stroke-linecap:round;stroke-width:3;"/>
   </g>
   <g id="line2d_92">
    <path clip-path="url(#pee975aabe6)" d="M 703.9425 1309.617188 
L 703.9425 1238.6525 
" style="fill:none;stroke:#4c4c4c;stroke-linecap:round;stroke-width:3;"/>
   </g>
   <g id="line2d_93">
    <path clip-path="url(#pee975aabe6)" d="M 655.5295 1431.270937 
L 752.3555 1431.270937 
" style="fill:none;stroke:#4c4c4c;stroke-linecap:round;stroke-width:3;"/>
   </g>
   <g id="line2d_94">
    <path clip-path="url(#pee975aabe6)" d="M 655.5295 1238.6525 
L 752.3555 1238.6525 
" style="fill:none;stroke:#4c4c4c;stroke-linecap:round;stroke-width:3;"/>
   </g>
   <g id="line2d_95">
    <path clip-path="url(#pee975aabe6)" d="M 946.0075 1309.617188 
L 946.0075 1461.684375 
" style="fill:none;stroke:#4c4c4c;stroke-linecap:round;stroke-width:3;"/>
   </g>
   <g id="line2d_96">
    <path clip-path="url(#pee975aabe6)" d="M 946.0075 1208.239062 
L 946.0075 1056.171875 
" style="fill:none;stroke:#4c4c4c;stroke-linecap:round;stroke-width:3;"/>
   </g>
   <g id="line2d_97">
    <path clip-path="url(#pee975aabe6)" d="M 897.5945 1461.684375 
L 994.4205 1461.684375 
" style="fill:none;stroke:#4c4c4c;stroke-linecap:round;stroke-width:3;"/>
   </g>
   <g id="line2d_98">
    <path clip-path="url(#pee975aabe6)" d="M 897.5945 1056.171875 
L 994.4205 1056.171875 
" style="fill:none;stroke:#4c4c4c;stroke-linecap:round;stroke-width:3;"/>
   </g>
   <g id="line2d_99">
    <path clip-path="url(#pee975aabe6)" d="M 607.1165 1309.617188 
L 800.7685 1309.617188 
" style="fill:none;stroke:#4c4c4c;stroke-linecap:round;stroke-width:3;"/>
   </g>
   <g id="line2d_100">
    <path clip-path="url(#pee975aabe6)" d="M 849.1815 1309.617188 
L 1042.8335 1309.617188 
" style="fill:none;stroke:#4c4c4c;stroke-linecap:round;stroke-width:3;"/>
   </g>
   <g id="patch_40">
    <path d="M 582.91 1481.96 
L 582.91 1035.89625 
" style="fill:none;"/>
   </g>
   <g id="patch_41">
    <path d="M 1067.04 1481.96 
L 1067.04 1035.89625 
" style="fill:none;"/>
   </g>
   <g id="patch_42">
    <path d="M 582.91 1481.96 
L 1067.04 1481.96 
" style="fill:none;"/>
   </g>
   <g id="patch_43">
    <path d="M 582.91 1035.89625 
L 1067.04 1035.89625 
" style="fill:none;"/>
   </g>
   <g id="text_58">
    <!-- hours-per-week for each income -->
    <g style="fill:#262626;" transform="translate(738.9425 1029.89625)scale(0.12 -0.12)">
     <defs>
      <path d="M 6.640625 0 
L 6.640625 71.578125 
L 15.4375 71.578125 
L 15.4375 30.765625 
L 36.234375 51.859375 
L 47.609375 51.859375 
L 27.78125 32.625 
L 49.609375 0 
L 38.765625 0 
L 21.625 26.515625 
L 15.4375 20.5625 
L 15.4375 0 
z
" id="ArialMT-107"/>
     </defs>
     <use xlink:href="#ArialMT-104"/>
     <use x="55.615234" xlink:href="#ArialMT-111"/>
     <use x="111.230469" xlink:href="#ArialMT-117"/>
     <use x="166.845703" xlink:href="#ArialMT-114"/>
     <use x="200.146484" xlink:href="#ArialMT-115"/>
     <use x="250.146484" xlink:href="#ArialMT-45"/>
     <use x="283.447266" xlink:href="#ArialMT-112"/>
     <use x="339.0625" xlink:href="#ArialMT-101"/>
     <use x="394.677734" xlink:href="#ArialMT-114"/>
     <use x="427.978516" xlink:href="#ArialMT-45"/>
     <use x="461.279297" xlink:href="#ArialMT-119"/>
     <use x="533.496094" xlink:href="#ArialMT-101"/>
     <use x="589.111328" xlink:href="#ArialMT-101"/>
     <use x="644.726562" xlink:href="#ArialMT-107"/>
     <use x="694.726562" xlink:href="#ArialMT-32"/>
     <use x="722.509766" xlink:href="#ArialMT-102"/>
     <use x="750.292969" xlink:href="#ArialMT-111"/>
     <use x="805.908203" xlink:href="#ArialMT-114"/>
     <use x="839.208984" xlink:href="#ArialMT-32"/>
     <use x="866.992188" xlink:href="#ArialMT-101"/>
     <use x="922.607422" xlink:href="#ArialMT-97"/>
     <use x="978.222656" xlink:href="#ArialMT-99"/>
     <use x="1028.222656" xlink:href="#ArialMT-104"/>
     <use x="1083.837891" xlink:href="#ArialMT-32"/>
     <use x="1111.621094" xlink:href="#ArialMT-105"/>
     <use x="1133.837891" xlink:href="#ArialMT-110"/>
     <use x="1189.453125" xlink:href="#ArialMT-99"/>
     <use x="1239.453125" xlink:href="#ArialMT-111"/>
     <use x="1295.068359" xlink:href="#ArialMT-109"/>
     <use x="1378.369141" xlink:href="#ArialMT-101"/>
    </g>
   </g>
  </g>
  <g id="text_59">
   <!-- Box Plots without Outliers shown -->
   <g style="fill:#262626;" transform="translate(430.789453 40.976719)scale(0.15 -0.15)">
    <defs>
     <path d="M 7.328125 0 
L 7.328125 71.578125 
L 34.1875 71.578125 
Q 42.390625 71.578125 47.34375 69.40625 
Q 52.296875 67.234375 55.09375 62.71875 
Q 57.90625 58.203125 57.90625 53.265625 
Q 57.90625 48.6875 55.421875 44.625 
Q 52.9375 40.578125 47.90625 38.09375 
Q 54.390625 36.1875 57.875 31.59375 
Q 61.375 27 61.375 20.75 
Q 61.375 15.71875 59.25 11.390625 
Q 57.125 7.078125 54 4.734375 
Q 50.875 2.390625 46.15625 1.1875 
Q 41.453125 0 34.625 0 
z
M 16.796875 41.5 
L 32.28125 41.5 
Q 38.578125 41.5 41.3125 42.328125 
Q 44.921875 43.40625 46.75 45.890625 
Q 48.578125 48.390625 48.578125 52.15625 
Q 48.578125 55.71875 46.875 58.421875 
Q 45.171875 61.140625 41.984375 62.140625 
Q 38.8125 63.140625 31.109375 63.140625 
L 16.796875 63.140625 
z
M 16.796875 8.453125 
L 34.625 8.453125 
Q 39.203125 8.453125 41.0625 8.796875 
Q 44.34375 9.375 46.53125 10.734375 
Q 48.734375 12.109375 50.140625 14.71875 
Q 51.5625 17.328125 51.5625 20.75 
Q 51.5625 24.75 49.515625 27.703125 
Q 47.46875 30.671875 43.828125 31.859375 
Q 40.1875 33.0625 33.34375 33.0625 
L 16.796875 33.0625 
z
" id="ArialMT-66"/>
     <path d="M 0.734375 0 
L 19.671875 26.953125 
L 2.15625 51.859375 
L 13.140625 51.859375 
L 21.09375 39.703125 
Q 23.34375 36.234375 24.703125 33.890625 
Q 26.859375 37.109375 28.65625 39.59375 
L 37.40625 51.859375 
L 47.90625 51.859375 
L 29.984375 27.4375 
L 49.265625 0 
L 38.484375 0 
L 27.828125 16.109375 
L 25 20.453125 
L 11.375 0 
z
" id="ArialMT-120"/>
     <path d="M 7.71875 0 
L 7.71875 71.578125 
L 34.71875 71.578125 
Q 41.84375 71.578125 45.609375 70.90625 
Q 50.875 70.015625 54.4375 67.546875 
Q 58.015625 65.09375 60.1875 60.640625 
Q 62.359375 56.203125 62.359375 50.875 
Q 62.359375 41.75 56.546875 35.421875 
Q 50.734375 29.109375 35.546875 29.109375 
L 17.1875 29.109375 
L 17.1875 0 
z
M 17.1875 37.546875 
L 35.6875 37.546875 
Q 44.875 37.546875 48.734375 40.96875 
Q 52.59375 44.390625 52.59375 50.59375 
Q 52.59375 55.078125 50.3125 58.265625 
Q 48.046875 61.46875 44.34375 62.5 
Q 41.9375 63.140625 35.5 63.140625 
L 17.1875 63.140625 
z
" id="ArialMT-80"/>
     <path d="M 4.828125 34.859375 
Q 4.828125 52.6875 14.390625 62.765625 
Q 23.96875 72.859375 39.109375 72.859375 
Q 49.03125 72.859375 56.984375 68.109375 
Q 64.9375 63.375 69.109375 54.90625 
Q 73.296875 46.4375 73.296875 35.6875 
Q 73.296875 24.8125 68.890625 16.21875 
Q 64.5 7.625 56.4375 3.203125 
Q 48.390625 -1.21875 39.0625 -1.21875 
Q 28.953125 -1.21875 20.984375 3.65625 
Q 13.03125 8.546875 8.921875 16.984375 
Q 4.828125 25.4375 4.828125 34.859375 
z
M 14.59375 34.71875 
Q 14.59375 21.78125 21.546875 14.328125 
Q 28.515625 6.890625 39.015625 6.890625 
Q 49.703125 6.890625 56.609375 14.40625 
Q 63.53125 21.921875 63.53125 35.75 
Q 63.53125 44.484375 60.578125 51 
Q 57.625 57.515625 51.921875 61.109375 
Q 46.234375 64.703125 39.15625 64.703125 
Q 29.109375 64.703125 21.84375 57.78125 
Q 14.59375 50.875 14.59375 34.71875 
z
" id="ArialMT-79"/>
    </defs>
    <use xlink:href="#ArialMT-66"/>
    <use x="66.699219" xlink:href="#ArialMT-111"/>
    <use x="122.314453" xlink:href="#ArialMT-120"/>
    <use x="172.314453" xlink:href="#ArialMT-32"/>
    <use x="200.097656" xlink:href="#ArialMT-80"/>
    <use x="266.796875" xlink:href="#ArialMT-108"/>
    <use x="289.013672" xlink:href="#ArialMT-111"/>
    <use x="344.628906" xlink:href="#ArialMT-116"/>
    <use x="372.412109" xlink:href="#ArialMT-115"/>
    <use x="422.412109" xlink:href="#ArialMT-32"/>
    <use x="450.195312" xlink:href="#ArialMT-119"/>
    <use x="522.412109" xlink:href="#ArialMT-105"/>
    <use x="544.628906" xlink:href="#ArialMT-116"/>
    <use x="572.412109" xlink:href="#ArialMT-104"/>
    <use x="628.027344" xlink:href="#ArialMT-111"/>
    <use x="683.642578" xlink:href="#ArialMT-117"/>
    <use x="739.257812" xlink:href="#ArialMT-116"/>
    <use x="767.041016" xlink:href="#ArialMT-32"/>
    <use x="794.824219" xlink:href="#ArialMT-79"/>
    <use x="872.607422" xlink:href="#ArialMT-117"/>
    <use x="928.222656" xlink:href="#ArialMT-116"/>
    <use x="956.005859" xlink:href="#ArialMT-108"/>
    <use x="978.222656" xlink:href="#ArialMT-105"/>
    <use x="1000.439453" xlink:href="#ArialMT-101"/>
    <use x="1056.054688" xlink:href="#ArialMT-114"/>
    <use x="1089.355469" xlink:href="#ArialMT-115"/>
    <use x="1139.355469" xlink:href="#ArialMT-32"/>
    <use x="1167.138672" xlink:href="#ArialMT-115"/>
    <use x="1217.138672" xlink:href="#ArialMT-104"/>
    <use x="1272.753906" xlink:href="#ArialMT-111"/>
    <use x="1328.369141" xlink:href="#ArialMT-119"/>
    <use x="1400.585938" xlink:href="#ArialMT-110"/>
   </g>
  </g>
 </g>
 <defs>
  <clipPath id="p25f69b5e4c">
   <rect height="446.06375" width="484.13" x="45.34" y="54.29625"/>
  </clipPath>
  <clipPath id="p618d4dd927">
   <rect height="446.06375" width="484.13" x="582.91" y="54.29625"/>
  </clipPath>
  <clipPath id="pafe5d267f0">
   <rect height="446.06375" width="484.13" x="45.34" y="545.09625"/>
  </clipPath>
  <clipPath id="p3a276949dc">
   <rect height="446.06375" width="484.13" x="582.91" y="545.09625"/>
  </clipPath>
  <clipPath id="p3cc4a3b5b8">
   <rect height="446.06375" width="484.13" x="45.34" y="1035.89625"/>
  </clipPath>
  <clipPath id="pee975aabe6">
   <rect height="446.06375" width="484.13" x="582.91" y="1035.89625"/>
  </clipPath>
 </defs>
</svg>
